<mxfile host="app.diagrams.net" modified="2024-06-21T06:40:21.216Z" agent="Mozilla/5.0 (Macintosh; Intel Mac OS X 10_15_7) AppleWebKit/537.36 (KHTML, like Gecko) Chrome/126.0.0.0 Safari/537.36" etag="dLhGILp8GUlyIDTbtOCm" version="24.6.0" type="github">
  <diagram name="画布1" id="pI6taQEQZb2WSRhaHVCT">
    <mxGraphModel dx="-2166" dy="786" grid="1" gridSize="10" guides="1" tooltips="1" connect="1" arrows="1" fold="1" page="1" pageScale="1" pageWidth="900" pageHeight="1600" math="0" shadow="0">
      <root>
        <mxCell id="0" />
        <mxCell id="1" parent="0" />
        <UserObject label="&lt;div style=&quot;font-size: 1px&quot;&gt;&lt;p style=&quot;text-align:center;margin-left:0;margin-right:0;margin-top:0px;margin-bottom:0px;text-indent:0;vertical-align:middle;direction:ltr;&quot;&gt;&lt;font style=&quot;font-size:20px;font-family:0;color:#000000;direction:ltr;letter-spacing:0px;line-height:120%;opacity:1&quot;&gt;QuorumPeerMain&lt;/font&gt;&lt;/p&gt;&lt;/div&gt;" tags="Background" id="gA9360L1mvfKF3IkTRkT-2">
          <mxCell style="verticalAlign=middle;align=center;overflow=width;vsdxID=1;fillColor=#99ff99;gradientColor=none;shape=stencil(lVLLEoIwDPyaXjtt4gPPCP/BDEU6IsUCin8vtQgtMDjessmmu0lDMKzzpBIEWN1odRVPmTY5wTMBkGUutGz6iGBEMMyUFhet2jK1uEoM00Q39TAvdLaPmQ5gL4v2lOMnEVvuvU1Sw+U+2YcdWMgpwkAAlzC8VcjS0T0F9BB42mxDmLMf0mMd1gfxxSf6YGZHg+M/8mPia8AdZ+Zp3cG0q1X29uIX8rPpF/P44tt/3gfTsWSyKOytufX5cfUpe5gYvQE=);strokeColor=#000000;spacingTop=-3;spacingBottom=-3;spacingLeft=-3;spacingRight=-3;points=[];labelBackgroundColor=none;rounded=0;html=1;whiteSpace=wrap;" vertex="1" parent="1">
            <mxGeometry x="4267" y="1585" width="303" height="78" as="geometry" />
          </mxCell>
        </UserObject>
        <UserObject label="&lt;div style=&quot;font-size: 1px&quot;&gt;&lt;p style=&quot;text-align:center;margin-left:0;margin-right:0;margin-top:0px;margin-bottom:0px;text-indent:0;vertical-align:middle;direction:ltr;&quot;&gt;&lt;font style=&quot;font-size:20px;font-family:0;color:#000000;direction:ltr;letter-spacing:0px;line-height:120%;opacity:1&quot;&gt;解析配置文件&lt;/font&gt;&lt;/p&gt;&lt;/div&gt;" tags="Background" id="gA9360L1mvfKF3IkTRkT-3">
          <mxCell style="verticalAlign=middle;align=center;overflow=width;vsdxID=2;fillColor=#009999;gradientColor=none;shape=stencil(lVLLEoIwDPyaXjtt4gPPCP/BDEU6IsUCin8vtQgtMDjessmmu0lDMKzzpBIEWN1odRVPmTY5wTMBkGUutGz6iGBEMMyUFhet2jK1uEoM00Q39TAvdLaPmQ5gL4v2lOMnEVvuvU1Sw+U+2YcdWMgpwkAAlzC8VcjS0T0F9BB42mxDmLMf0mMd1gfxxSf6YGZHg+M/8mPia8AdZ+Zp3cG0q1X29uIX8rPpF/P44tt/3gfTsWSyKOytufX5cfUpe5gYvQE=);strokeColor=#000000;spacingTop=-3;spacingBottom=-3;spacingLeft=-3;spacingRight=-3;points=[];labelBackgroundColor=none;rounded=0;html=1;whiteSpace=wrap;" vertex="1" parent="1">
            <mxGeometry x="4396" y="1799" width="303" height="78" as="geometry" />
          </mxCell>
        </UserObject>
        <UserObject label="&lt;div style=&quot;font-size: 1px&quot;&gt;&lt;p style=&quot;text-align:center;margin-left:0;margin-right:0;margin-top:0px;margin-bottom:0px;text-indent:0;vertical-align:middle;direction:ltr;&quot;&gt;&lt;font style=&quot;font-size:20px;font-family:0;color:#000000;direction:ltr;letter-spacing:0px;line-height:120%;opacity:1&quot;&gt;开始文件清洗任务&lt;/font&gt;&lt;/p&gt;&lt;/div&gt;" tags="Background" id="gA9360L1mvfKF3IkTRkT-4">
          <mxCell style="verticalAlign=middle;align=center;overflow=width;vsdxID=3;fillColor=#009999;gradientColor=none;shape=stencil(lVLLEoIwDPyaXjtt4gPPCP/BDEU6IsUCin8vtQgtMDjessmmu0lDMKzzpBIEWN1odRVPmTY5wTMBkGUutGz6iGBEMMyUFhet2jK1uEoM00Q39TAvdLaPmQ5gL4v2lOMnEVvuvU1Sw+U+2YcdWMgpwkAAlzC8VcjS0T0F9BB42mxDmLMf0mMd1gfxxSf6YGZHg+M/8mPia8AdZ+Zp3cG0q1X29uIX8rPpF/P44tt/3gfTsWSyKOytufX5cfUpe5gYvQE=);strokeColor=#000000;spacingTop=-3;spacingBottom=-3;spacingLeft=-3;spacingRight=-3;points=[];labelBackgroundColor=none;rounded=0;html=1;whiteSpace=wrap;" vertex="1" parent="1">
            <mxGeometry x="4396" y="1936" width="303" height="78" as="geometry" />
          </mxCell>
        </UserObject>
        <UserObject label="&lt;div style=&quot;font-size: 1px&quot;&gt;&lt;p style=&quot;text-align:center;margin-left:0;margin-right:0;margin-top:0px;margin-bottom:0px;text-indent:0;vertical-align:middle;direction:ltr;&quot;&gt;&lt;font style=&quot;font-size:12px;font-family:0;color:#000000;direction:ltr;letter-spacing:0px;line-height:120%;opacity:1&quot;&gt;QuorumPeerConfig&lt;/font&gt;&lt;/p&gt;&lt;/div&gt;" tags="Background" id="gA9360L1mvfKF3IkTRkT-5">
          <mxCell style="verticalAlign=middle;align=center;overflow=width;vsdxID=4;fillColor=#66ffff;gradientColor=none;shape=stencil(jZPNjsIwDISfJkek2CZEOfPzHmgp22hLi0Jh4e1pcfYnc4i4ZTJOP9n1GFlf2v25MWwvYxq+mu94GFsjG8Mc+7ZJcZxORrZG1schNZ9puPYH1ef9XDmfTsNt/sJd3xHPT9g+VHr7kjst/bgmrSV1F2Rzdb5wWd9Z9TLbWYrLtqgO2c5SqjAPqJIkXKJsSVpyiaIqykFbC4B5V4X92j8wV4MFV8IIZkhWYIqAC4BzVRxZLnkemgvQHFlsD2YZqrNceWxPYEc88sRU/12dJ4w8nCdsSoClJMCVEehi/25apsNfyo6x6zSk/31M5XSliZbtEw==);strokeColor=#000000;spacingTop=-3;spacingBottom=-3;spacingLeft=-3;spacingRight=-3;points=[];labelBackgroundColor=none;rounded=0;html=1;whiteSpace=wrap;" vertex="1" parent="1">
            <mxGeometry x="4873" y="1697" width="243" height="80" as="geometry" />
          </mxCell>
        </UserObject>
        <UserObject label="&lt;div style=&quot;font-size: 1px&quot;&gt;&lt;p style=&quot;text-align:center;margin-left:0;margin-right:0;margin-top:0px;margin-bottom:0px;text-indent:0;vertical-align:middle;direction:ltr;&quot;&gt;&lt;font style=&quot;font-size:12px;font-family:0;color:#000000;direction:ltr;letter-spacing:0px;line-height:120%;opacity:1&quot;&gt;DatadirCleanupManager&lt;/font&gt;&lt;/p&gt;&lt;/div&gt;" tags="Background" id="gA9360L1mvfKF3IkTRkT-6">
          <mxCell style="verticalAlign=middle;align=center;overflow=width;vsdxID=5;fillColor=#66ffff;gradientColor=none;shape=stencil(jZPNjsIwDISfJkek2CZEOfPzHmgp22hLi0Jh4e1pcfYnc4i4ZTJOP9n1GFlf2v25MWwvYxq+mu94GFsjG8Mc+7ZJcZxORrZG1schNZ9puPYH1ef9XDmfTsNt/sJd3xHPT9g+VHr7kjst/bgmrSV1F2Rzdb5wWd9Z9TLbWYrLtqgO2c5SqjAPqJIkXKJsSVpyiaIqykFbC4B5V4X92j8wV4MFV8IIZkhWYIqAC4BzVRxZLnkemgvQHFlsD2YZqrNceWxPYEc88sRU/12dJ4w8nCdsSoClJMCVEehi/25apsNfyo6x6zSk/31M5XSliZbtEw==);strokeColor=#000000;spacingTop=-3;spacingBottom=-3;spacingLeft=-3;spacingRight=-3;points=[];labelBackgroundColor=none;rounded=0;html=1;whiteSpace=wrap;" vertex="1" parent="1">
            <mxGeometry x="4947" y="1934" width="321" height="82" as="geometry" />
          </mxCell>
        </UserObject>
        <UserObject label="&lt;div style=&quot;font-size: 1px&quot;&gt;&lt;p style=&quot;text-align:center;margin-left:0;margin-right:0;margin-top:0px;margin-bottom:0px;text-indent:0;vertical-align:middle;direction:ltr;&quot;&gt;&lt;font style=&quot;font-size:20px;font-family:0;color:#000000;direction:ltr;letter-spacing:0px;line-height:120%;opacity:1&quot;&gt;根据配置文件创建并启动 QuorumPeer&lt;/font&gt;&lt;/p&gt;&lt;/div&gt;" tags="Background" id="gA9360L1mvfKF3IkTRkT-7">
          <mxCell style="verticalAlign=middle;align=center;overflow=width;vsdxID=6;fillColor=#009999;gradientColor=none;shape=stencil(hVLbEoIgEP0aXhlc1Mlns/9wRkwmE0Mt+/ukNQV16G0vZznnLEt42lV5KwiwrtfqJl6y6CvCzwRANpXQsp8iwjPC01JpcdVqaArM29wgTXRXT/PCiHPMTAB7YxbSOPoWLoh9DHlhsIELdtMRMA0oC2cA2ID5rVo2Fm9yoknscDMPccD+UC99ODbikq/wWUxEuc/3jn4p/ATYdjaajhWsuzpE+xe/o9+43/lxyf1/PgXrsZSyrvHW7P72uKYSHibPPg==);strokeColor=#000000;spacingTop=-3;spacingBottom=-3;spacingLeft=-3;spacingRight=-3;points=[];labelBackgroundColor=none;rounded=0;html=1;whiteSpace=wrap;" vertex="1" parent="1">
            <mxGeometry x="4356" y="2340" width="383" height="86" as="geometry" />
          </mxCell>
        </UserObject>
        <UserObject label="&lt;div style=&quot;font-size: 1px&quot;&gt;&lt;p style=&quot;text-align:center;margin-left:0;margin-right:0;margin-top:0px;margin-bottom:0px;text-indent:0;vertical-align:middle;direction:ltr;&quot;&gt;&lt;font style=&quot;font-size:20px;font-family:0;color:#000000;direction:ltr;letter-spacing:0px;line-height:120%;opacity:1&quot;&gt;创建 ServerCnxnFactory&lt;br/&gt;&lt;/font&gt;&lt;/p&gt;&lt;/div&gt;" tags="Background" id="gA9360L1mvfKF3IkTRkT-8">
          <mxCell style="verticalAlign=middle;align=center;overflow=width;vsdxID=7;fillColor=#994c00;gradientColor=none;shape=stencil(lVLRDoIwDPyavS5bB0SeEf+DhCGLyHCC4t/LLMIGBONbr73url2JSO5l1kgC7N4afZFPlbclEUcCoOpSGtUOEREpEUmhjTwb3dU54iazTBtd9cO+0GMfsx3AXogCKuJP4oTcW5fllst9sg97QMhpEIwEcAnjW5WqHd34QMPI02Y7wpz9kJ7qsD2ILz7TRzMhjfg/8lPia8AdZ+Fp28G8q032/uJX8ovpV/P44vt/PgTzsRSqqvDW3PryuIYUHqZI3w==);strokeColor=#000000;spacingTop=-3;spacingBottom=-3;spacingLeft=-3;spacingRight=-3;points=[];labelBackgroundColor=none;rounded=0;html=1;whiteSpace=wrap;" vertex="1" parent="1">
            <mxGeometry x="5006" y="2337" width="278" height="91" as="geometry" />
          </mxCell>
        </UserObject>
        <UserObject label="&lt;div style=&quot;font-size: 1px&quot;&gt;&lt;p style=&quot;text-align:center;margin-left:0;margin-right:0;margin-top:0px;margin-bottom:0px;text-indent:0;vertical-align:middle;direction:ltr;&quot;&gt;&lt;font style=&quot;font-size:20px;font-family:0;color:#000000;direction:ltr;letter-spacing:0px;line-height:120%;opacity:1&quot;&gt;根据配置数据创建 QuorumPeer&lt;br/&gt;&lt;/font&gt;&lt;/p&gt;&lt;/div&gt;" tags="Background" id="gA9360L1mvfKF3IkTRkT-9">
          <mxCell style="verticalAlign=middle;align=center;overflow=width;vsdxID=8;fillColor=#994c00;gradientColor=none;shape=stencil(lZLREoIgEEW/hlcG2cp6NvsPZ8RkMjHEsr9PWlMgx6a3vctdzi4sgaQts0YQzlqj1UU8ZG5KAkfCuaxLoaUZIgIpgaRQWpy16uocdZNZp42u6m5v6LGO2QrOnqg2FN76hNZbl+XWGvleX/YcZUQhHg3cNYx3VbJ2sIc93YGHZivgiP1AT+d8cQ6fPbvHXrY0/gc+JT54d5igo+UG5pdadK8/+xc+mD0cx2ev/vcQzHtSyKrCNXPPw70aUriTkL4A);strokeColor=#000000;spacingTop=-3;spacingBottom=-3;spacingLeft=-3;spacingRight=-3;points=[];labelBackgroundColor=none;rounded=0;html=1;whiteSpace=wrap;" vertex="1" parent="1">
            <mxGeometry x="4999" y="2613" width="292" height="92" as="geometry" />
          </mxCell>
        </UserObject>
        <UserObject label="&lt;div style=&quot;font-size: 1px&quot;&gt;&lt;p style=&quot;text-align:left;margin-left:0;margin-right:0;margin-top:0px;margin-bottom:0px;text-indent:0;vertical-align:middle;direction:ltr;&quot;&gt;&lt;font style=&quot;font-size:12px;font-family:0;color:#000000;direction:ltr;letter-spacing:0px;line-height:120%;opacity:1&quot;&gt;1、服务器创建工厂，用于接收接收客户端请求。&lt;/font&gt;&lt;/p&gt;&lt;/div&gt;" tags="Background" id="gA9360L1mvfKF3IkTRkT-10">
          <mxCell style="verticalAlign=middle;align=left;overflow=width;vsdxID=9;fillColor=#FFFFFF;gradientColor=none;shape=stencil(dVLLEoMgDPwajnWAjK+zbf/DqViZWrGorf37ykRUGHrLhs1uEkKgGJqyF4TTYdTqIT6yGhsCZ8K57Bqh5bhEBC4Eilppcddq6irEfWmYJnqqt1GYsY6aCk6/iGKEV2TeJo1U5nJXeGJJlKSYmznmGLUkHiCBT4KQ7Wsqq4Nrnrm2FlvL2HO06mE1gAjAFdza2YbYW7aiuaPZyu7vCj17l8pYlDrsLF4T4W69jadeo97k7hqXYP/0WrYt3szx3T+SJYUHBpcf);strokeColor=#000000;spacingTop=-3;spacingBottom=-3;spacingLeft=-3;spacingRight=-3;points=[];labelBackgroundColor=none;rounded=0;html=1;whiteSpace=wrap;" vertex="1" parent="1">
            <mxGeometry x="5364" y="2176" width="336" height="125" as="geometry" />
          </mxCell>
        </UserObject>
        <UserObject label="&lt;div style=&quot;font-size: 1px&quot;&gt;&lt;p style=&quot;text-align:center;margin-left:0;margin-right:0;margin-top:0px;margin-bottom:0px;text-indent:0;vertical-align:middle;direction:ltr;&quot;&gt;&lt;font style=&quot;font-size:12px;font-family:0;color:#000000;direction:ltr;letter-spacing:0px;line-height:120%;opacity:1&quot;&gt;一个 QuorumPeer 代表一个Zookeeper 服务器实例。&lt;/font&gt;&lt;/p&gt;&lt;/div&gt;" tags="Background" id="gA9360L1mvfKF3IkTRkT-11">
          <mxCell style="verticalAlign=middle;align=center;overflow=width;vsdxID=10;fillColor=#FFFFFF;gradientColor=none;shape=stencil(dVLLEoMgDPwajnWAjK+zbf/DqViZWrGorf37ykRUGHrLhs1uEkKgGJqyF4TTYdTqIT6yGhsCZ8K57Bqh5bhEBC4Eilppcddq6irEfWmYJnqqt1GYsY6aCk6/iGKEV2TeJo1U5nJXeGJJlKSYmznmGLUkHiCBT4KQ7Wsqq4Nrnrm2FlvL2HO06mE1gAjAFdza2YbYW7aiuaPZyu7vCj17l8pYlDrsLF4T4W69jadeo97k7hqXYP/0WrYt3szx3T+SJYUHBpcf);strokeColor=#000000;spacingTop=-3;spacingBottom=-3;spacingLeft=-3;spacingRight=-3;points=[];labelBackgroundColor=none;rounded=0;html=1;whiteSpace=wrap;" vertex="1" parent="1">
            <mxGeometry x="5437" y="2452" width="412" height="169" as="geometry" />
          </mxCell>
        </UserObject>
        <UserObject label="&lt;div style=&quot;font-size: 1px&quot;&gt;&lt;p style=&quot;text-align:center;margin-left:0;margin-right:0;margin-top:0px;margin-bottom:0px;text-indent:0;vertical-align:middle;direction:ltr;&quot;&gt;&lt;font style=&quot;font-size:20px;font-family:0;color:#000000;direction:ltr;letter-spacing:0px;line-height:120%;opacity:1&quot;&gt;初始化QuorumPeer&lt;br/&gt;&lt;/font&gt;&lt;/p&gt;&lt;/div&gt;" tags="Background" id="gA9360L1mvfKF3IkTRkT-12">
          <mxCell style="verticalAlign=middle;align=center;overflow=width;vsdxID=11;fillColor=#994c00;gradientColor=none;shape=stencil(lZLREoIgEEW/hlcG2cp6NvsPZ8RkMjHEsr9PWlMgx6a3vctdzi4sgaQts0YQzlqj1UU8ZG5KAkfCuaxLoaUZIgIpgaRQWpy16uocdZNZp42u6m5v6LGO2QrOnqg2FN76hNZbl+XWGvleX/YcZUQhHg3cNYx3VbJ2sIc93YGHZivgiP1AT+d8cQ6fPbvHXrY0/gc+JT54d5igo+UG5pdadK8/+xc+mD0cx2ev/vcQzHtSyKrCNXPPw70aUriTkL4A);strokeColor=#000000;spacingTop=-3;spacingBottom=-3;spacingLeft=-3;spacingRight=-3;points=[];labelBackgroundColor=none;rounded=0;html=1;whiteSpace=wrap;" vertex="1" parent="1">
            <mxGeometry x="4999" y="3013" width="292" height="92" as="geometry" />
          </mxCell>
        </UserObject>
        <UserObject label="&lt;div style=&quot;font-size: 1px&quot;&gt;&lt;p style=&quot;text-align:center;margin-left:0;margin-right:0;margin-top:0px;margin-bottom:0px;text-indent:0;vertical-align:middle;direction:ltr;&quot;&gt;&lt;font style=&quot;font-size:20px;font-family:0;color:#000000;direction:ltr;letter-spacing:0px;line-height:120%;opacity:1&quot;&gt;启动QuorumPeer&lt;br/&gt;&lt;/font&gt;&lt;/p&gt;&lt;/div&gt;" tags="Background" id="gA9360L1mvfKF3IkTRkT-13">
          <mxCell style="verticalAlign=middle;align=center;overflow=width;vsdxID=12;fillColor=#994c00;gradientColor=none;shape=stencil(lZLREoIgEEW/hlcG2cp6NvsPZ8RkMjHEsr9PWlMgx6a3vctdzi4sgaQts0YQzlqj1UU8ZG5KAkfCuaxLoaUZIgIpgaRQWpy16uocdZNZp42u6m5v6LGO2QrOnqg2FN76hNZbl+XWGvleX/YcZUQhHg3cNYx3VbJ2sIc93YGHZivgiP1AT+d8cQ6fPbvHXrY0/gc+JT54d5igo+UG5pdadK8/+xc+mD0cx2ev/vcQzHtSyKrCNXPPw70aUriTkL4A);strokeColor=#000000;spacingTop=-3;spacingBottom=-3;spacingLeft=-3;spacingRight=-3;points=[];labelBackgroundColor=none;rounded=0;html=1;whiteSpace=wrap;" vertex="1" parent="1">
            <mxGeometry x="4999" y="3528" width="292" height="92" as="geometry" />
          </mxCell>
        </UserObject>
        <UserObject label="&lt;div style=&quot;font-size: 1px&quot;&gt;&lt;p style=&quot;text-align:center;margin-left:0;margin-right:0;margin-top:0px;margin-bottom:0px;text-indent:0;vertical-align:middle;direction:ltr;&quot;&gt;&lt;font style=&quot;font-size:20px;font-family:0;color:#000000;direction:ltr;letter-spacing:0px;line-height:120%;opacity:1&quot;&gt;初始化 QuorumAuthServer 和 QuorumAuthLearner 用于集群间节点通信数据验证&lt;/font&gt;&lt;/p&gt;&lt;/div&gt;" tags="Background" id="gA9360L1mvfKF3IkTRkT-14">
          <mxCell style="verticalAlign=middle;align=center;overflow=width;vsdxID=13;fillColor=#994c00;gradientColor=none;shape=stencil(lVLLEoIwDPyaXjtt6qCcEf+DGYp0RIrlIf691CC0wOB4yyab7iYNEVGdJ5UkwOrG6Jt8qrTJiTgTAFXm0qhmiIiIiYgybeTV6LZMEVeJZdrorjv7Qo99zHYAeyECGoafxAW5jzZJLZf7ZB/2gJBTcRgJ4BLGtwpVOrrhiQaBp812hDn7IT3VYXsQX3ymj2aOlPF/5KfE14A7zsLTtoN5V5vs/cWv5BfTr+bxxff/fAjmY8lUUeCtufXlcQ0pPEwRvwE=);strokeColor=#000000;spacingTop=-3;spacingBottom=-3;spacingLeft=-3;spacingRight=-3;points=[];labelBackgroundColor=none;rounded=0;html=1;whiteSpace=wrap;" vertex="1" parent="1">
            <mxGeometry x="4996" y="3220" width="297" height="134" as="geometry" />
          </mxCell>
        </UserObject>
        <UserObject label="&lt;div style=&quot;font-size: 1px&quot;&gt;&lt;p style=&quot;text-align:center;margin-left:0;margin-right:0;margin-top:0px;margin-bottom:0px;text-indent:0;vertical-align:middle;direction:ltr;&quot;&gt;&lt;font style=&quot;font-size:12px;font-family:0;color:#000000;direction:ltr;letter-spacing:0px;line-height:120%;opacity:1&quot;&gt;加载快照文件&lt;/font&gt;&lt;/p&gt;&lt;/div&gt;" tags="Background" id="gA9360L1mvfKF3IkTRkT-15">
          <mxCell style="verticalAlign=middle;align=center;overflow=width;vsdxID=14;fillColor=#FFFFFF;gradientColor=none;shape=stencil(lVLRDoIwDPyavS6jFYnPiP9BwpBFZDhB8e9lFmUDssS3XnvdXbsyTO9V3koG4t4ZfZFPVXQVwyMDUE0ljerGiGHGMC21kWej+6Yg3OaWaaOrftgXBuoTtgPEi1DMk+STOBH31ueF5UY+2YcDEASO8UQAlzC9VavG0T0kfB972iIgHImw9FyH7UF88Zk+mdlxwH/kf4mvAXechadNB86uNtnhxa/kF9Ov5vHFw38+BvOxlKqu6dbc+vK4xhQdJmZv);strokeColor=#000000;spacingTop=-3;spacingBottom=-3;spacingLeft=-3;spacingRight=-3;points=[];labelBackgroundColor=none;rounded=0;html=1;whiteSpace=wrap;" vertex="1" parent="1">
            <mxGeometry x="5484" y="3343" width="170" height="69" as="geometry" />
          </mxCell>
        </UserObject>
        <UserObject label="&lt;div style=&quot;font-size: 1px&quot;&gt;&lt;p style=&quot;text-align:left;margin-left:0;margin-right:0;margin-top:0px;margin-bottom:0px;text-indent:0;vertical-align:top;direction:ltr;&quot;&gt;&lt;font style=&quot;font-size:12px;font-family:0;color:#000000;direction:ltr;letter-spacing:0px;line-height:120%;opacity:1&quot;&gt;&lt;br/&gt;&lt;br/&gt;&lt;/font&gt;&lt;font style=&quot;font-size:NaNpx;font-family:0;color:#000000;direction:ltr;letter-spacing:0px;line-height:120%;opacity:1&quot;&gt;启动服务暴漏HTTP和HTTPS端口，用于接收客户端发送的请求。&lt;/font&gt;&lt;font style=&quot;font-size:12px;font-family:0;color:#000000;direction:ltr;letter-spacing:0px;line-height:120%;opacity:1&quot;&gt;&lt;br/&gt;&lt;br/&gt;&lt;/font&gt;&lt;font style=&quot;font-size:12px;font-family:0;color:#000000;direction:ltr;letter-spacing:0px;line-height:120%;opacity:1&quot;&gt;&lt;br/&gt;&lt;br/&gt;&lt;/font&gt;&lt;font style=&quot;font-size:12px;font-family:0;color:#000000;direction:ltr;letter-spacing:0px;line-height:120%;opacity:1&quot;&gt;请求分为三种类型 auth、sasl 和 普通请求。&lt;br/&gt;&lt;/font&gt;&lt;font style=&quot;font-size:12px;font-family:0;color:#000000;direction:ltr;letter-spacing:0px;line-height:120%;opacity:1&quot;&gt;&lt;br/&gt;&lt;br/&gt;&lt;/font&gt;&lt;font style=&quot;font-size:12px;font-family:0;color:#000000;direction:ltr;letter-spacing:0px;line-height:120%;opacity:1&quot;&gt;参考 NettyServerCnxnFactory 和 NettyServerCnxn&lt;/font&gt;&lt;/p&gt;&lt;/div&gt;" tags="Background" id="gA9360L1mvfKF3IkTRkT-16">
          <mxCell style="verticalAlign=top;align=left;overflow=width;vsdxID=15;fillColor=#FFFFFF;gradientColor=none;shape=stencil(lVLRDoMgDPwaXgmWOOezc/9hIk4yJw5xc38/GWwCGpK99dordy1FtBjbamAIyKikuLInr1WL6AkB8L5lkqslQrREtGiEZBcppr42eKg0U0c38dAvzKaP6A4gL4MAH46fxNlw71NVa27ik304g4U4Sy0BXIJ9q+O9o5vnGFJPm0SEExKXXuuwP4gvvtKtmQxT+Ef+l/gacMcJPO06cHa1y44vfiMfTL+ZJxCP/vkSrMfS8K4zt+bWw+NaUuYwafkG);strokeColor=#000000;spacingTop=-3;spacingBottom=-3;spacingLeft=-3;spacingRight=-3;points=[];labelBackgroundColor=none;rounded=0;html=1;whiteSpace=wrap;" vertex="1" parent="1">
            <mxGeometry x="6288" y="3300" width="532" height="149" as="geometry" />
          </mxCell>
        </UserObject>
        <UserObject label="&lt;div style=&quot;font-size: 1px&quot;&gt;&lt;p style=&quot;text-align:center;margin-left:0;margin-right:0;margin-top:0px;margin-bottom:0px;text-indent:0;vertical-align:middle;direction:ltr;&quot;&gt;&lt;font style=&quot;font-size:12px;font-family:0;color:#000000;direction:ltr;letter-spacing:0px;line-height:120%;opacity:1&quot;&gt;启动命令执行服务器，用于通过接口处理指令。&lt;/font&gt;&lt;/p&gt;&lt;/div&gt;" tags="Background" id="gA9360L1mvfKF3IkTRkT-17">
          <mxCell style="verticalAlign=middle;align=center;overflow=width;vsdxID=16;fillColor=#FFFFFF;gradientColor=none;shape=stencil(hVLbEoIgEP0aXhlYcrJns/9wRkwmE0Mt+/ukNQV16G0vZznnLEtE0pZZIwmwtjP6Jl8q70oizgRA1aU0qhsjIlIikkIbeTW6r3PMm8wibXTXT/vCgHPMTgB7Y3agPPoWLoh99FlusdwH++kAmHJ6nPrg9qenKlU7tKeYCo+ZBWg5+0M892Hfhs+9wCctEY1Drjf0c+EnwHGzkrQvYF7ULji89A35yvvGjc8d/u8xWA6lUFWFd+b214c1lvAoRfoB);strokeColor=#000000;spacingTop=-3;spacingBottom=-3;spacingLeft=-3;spacingRight=-3;points=[];labelBackgroundColor=none;rounded=0;html=1;whiteSpace=wrap;" vertex="1" parent="1">
            <mxGeometry x="7164" y="3327" width="235" height="96" as="geometry" />
          </mxCell>
        </UserObject>
        <UserObject label="&lt;div style=&quot;font-size: 1px&quot;&gt;&lt;p style=&quot;text-align:center;margin-left:0;margin-right:0;margin-top:0px;margin-bottom:0px;text-indent:0;vertical-align:middle;direction:ltr;&quot;&gt;&lt;font style=&quot;font-size:12px;font-family:0;color:#000000;direction:ltr;letter-spacing:0px;line-height:120%;opacity:1&quot;&gt;开始Leader选举&lt;/font&gt;&lt;/p&gt;&lt;/div&gt;" tags="Background" id="gA9360L1mvfKF3IkTRkT-18">
          <mxCell style="verticalAlign=middle;align=center;overflow=width;vsdxID=17;fillColor=#FFFFFF;gradientColor=none;shape=stencil(hVLbDoMgDP0aXhcoMZnPzv2HiTjJnDi8zP39YGWKaNhbT3va0wMlPOvrohMEaD9odRcvWQ414RcCINtaaDmYiPCc8KxSWty0GtsScVdYpo0earITZuyjtgPoG1HyRVckPseitES2ZW7hDAjZKXF18OtuVCNbTzM9L+QDbiDL6B/hpQ4HHrbCK9ctEvO7E14SP2nPR7DMsXrgOiDHn3snHrhOI7Yjf2yC9TIq2TR4WH49vCSTwivk+Qc=);strokeColor=#000000;spacingTop=-3;spacingBottom=-3;spacingLeft=-3;spacingRight=-3;points=[];labelBackgroundColor=none;rounded=0;html=1;whiteSpace=wrap;" vertex="1" parent="1">
            <mxGeometry x="7148" y="3701" width="267" height="80" as="geometry" />
          </mxCell>
        </UserObject>
        <UserObject label="&lt;div style=&quot;font-size: 1px&quot;&gt;&lt;p style=&quot;text-align:center;margin-left:0;margin-right:0;margin-top:0px;margin-bottom:0px;text-indent:0;vertical-align:middle;direction:ltr;&quot;&gt;&lt;font style=&quot;font-size:12px;font-family:0;color:#000000;direction:ltr;letter-spacing:0px;line-height:120%;opacity:1&quot;&gt;创建选票和创建Leader算法&lt;/font&gt;&lt;/p&gt;&lt;/div&gt;" tags="Background" id="gA9360L1mvfKF3IkTRkT-19">
          <mxCell style="verticalAlign=middle;align=center;overflow=width;vsdxID=18;fillColor=#FFFFFF;gradientColor=none;shape=stencil(lVLLEoIwDPyaXjtt6iCeEf+DGYp0RIrlIf691CC0wOB4yyab7iYNEVGdJ5UkwOrG6Jt8qrTJiTgTAFXm0qhmiIiIiYgybeTV6LZMEVeJZdrorjv7Qo99zHYAeyE6Un74JC7IfbRJarncJ/uwB4ScBuFIAJcwvlWo0tE9hVSAp812hDn7IT3VYXsQX3ymj2aAhsE/8lPia8AdZ+Fp28G8q032/uJX8ovpV/P44vt/PgTzsWSqKPDW3PryuIYUHqaI3w==);strokeColor=#000000;spacingTop=-3;spacingBottom=-3;spacingLeft=-3;spacingRight=-3;points=[];labelBackgroundColor=none;rounded=0;html=1;whiteSpace=wrap;" vertex="1" parent="1">
            <mxGeometry x="7163" y="3980" width="237" height="56" as="geometry" />
          </mxCell>
        </UserObject>
        <UserObject label="&lt;div style=&quot;font-size: 1px&quot;&gt;&lt;p style=&quot;text-align:center;margin-left:0;margin-right:0;margin-top:0px;margin-bottom:0px;text-indent:0;vertical-align:middle;direction:ltr;&quot;&gt;&lt;font style=&quot;font-size:12px;font-family:0;color:#000000;direction:ltr;letter-spacing:0px;line-height:120%;opacity:1&quot;&gt;创建连接管理器 QuorumCnxManager&lt;/font&gt;&lt;/p&gt;&lt;/div&gt;" tags="Background" id="gA9360L1mvfKF3IkTRkT-20">
          <mxCell style="verticalAlign=middle;align=center;overflow=width;vsdxID=19;fillColor=#FFFFFF;gradientColor=none;shape=stencil(lVLLEoIwDPyaXjttKqOcEf+DGYp0RIrlIf691CC0wOB4yyab7iYNEVGdJ5UkwOrG6Jt8qrTJiTgTAFXm0qhmiIiIiYgybeTV6LZMEVeJZdrorjv7Qo99zHYAeyEK6JF/EhfkPtoktVzuk33YA0JOWTASwCWMbxWqdHTDEw0DT5vtCHP2Q3qqw/YgvvhMH80cKIT/yE+JrwF3nIWnbQfzrjbZ+4tfyS+mX83ji+//+RDMx5KposBbc+vL4xpSeJgifgM=);strokeColor=#000000;spacingTop=-3;spacingBottom=-3;spacingLeft=-3;spacingRight=-3;points=[];labelBackgroundColor=none;rounded=0;html=1;whiteSpace=wrap;" vertex="1" parent="1">
            <mxGeometry x="7657" y="3746" width="380" height="70" as="geometry" />
          </mxCell>
        </UserObject>
        <UserObject label="&lt;div style=&quot;font-size: 1px&quot;&gt;&lt;p style=&quot;text-align:center;margin-left:0;margin-right:0;margin-top:0px;margin-bottom:0px;text-indent:0;vertical-align:middle;direction:ltr;&quot;&gt;&lt;font style=&quot;font-size:12px;font-family:0;color:#000000;direction:ltr;letter-spacing:0px;line-height:120%;opacity:1&quot;&gt;HTTP Server&lt;/font&gt;&lt;/p&gt;&lt;/div&gt;" tags="Background" id="gA9360L1mvfKF3IkTRkT-21">
          <mxCell style="verticalAlign=middle;align=center;overflow=width;vsdxID=20;fillColor=#FFFFFF;gradientColor=none;shape=stencil(jZFRDsIgEERPs58aYGM9QK33aCwVIkJDqdbbC1mbKiGmfzvDWyaZBaxH1Q4SBBuDdzf51F1QgCcQQlslvQ5xAmwA6955efVush3poU1kmu7ukX6YaY+lDcFepA4kz0ReJk8o/2U/cserfXUkbxbkcbZAogBhDuGW2BVfjEJwFssLsX9DjbYbW4nDWmavjaFbfL/n5UeLDofNGw==);strokeColor=#000000;spacingTop=-3;spacingBottom=-3;spacingLeft=-3;spacingRight=-3;points=[];labelBackgroundColor=none;rounded=0;html=1;whiteSpace=wrap;" vertex="1" parent="1">
            <mxGeometry x="6176" y="2887" width="181" height="161" as="geometry" />
          </mxCell>
        </UserObject>
        <UserObject label="&lt;div style=&quot;font-size: 1px&quot;&gt;&lt;p style=&quot;text-align:center;margin-left:0;margin-right:0;margin-top:0px;margin-bottom:0px;text-indent:0;vertical-align:middle;direction:ltr;&quot;&gt;&lt;font style=&quot;font-size:12px;font-family:0;color:#000000;direction:ltr;letter-spacing:0px;line-height:120%;opacity:1&quot;&gt;HTTPS Server&lt;/font&gt;&lt;/p&gt;&lt;/div&gt;" tags="Background" id="gA9360L1mvfKF3IkTRkT-22">
          <mxCell style="verticalAlign=middle;align=center;overflow=width;vsdxID=21;fillColor=#FFFFFF;gradientColor=none;shape=stencil(jZFRDsIgEERPs58aYGM9QK33aCwVIkJDqdbbC1mbKiGmfzvDWyaZBaxH1Q4SBBuDdzf51F1QgCcQQlslvQ5xAmwA6955efVush3poU1kmu7ukX6YaY+lDcFepA4kz0ReJk8o/2U/cserfXUkbxbkcbZAogBhDuGW2BVfjEJwFssLsX9DjbYbW4nDWmavjaFbfL/n5UeLDofNGw==);strokeColor=#000000;spacingTop=-3;spacingBottom=-3;spacingLeft=-3;spacingRight=-3;points=[];labelBackgroundColor=none;rounded=0;html=1;whiteSpace=wrap;" vertex="1" parent="1">
            <mxGeometry x="6764" y="2887" width="181" height="161" as="geometry" />
          </mxCell>
        </UserObject>
        <UserObject label="&lt;div style=&quot;font-size: 1px&quot;&gt;&lt;p style=&quot;text-align:center;margin-left:0;margin-right:0;margin-top:0px;margin-bottom:0px;text-indent:0;vertical-align:middle;direction:ltr;&quot;&gt;&lt;font style=&quot;font-size:12px;font-family:0;color:#000000;direction:ltr;letter-spacing:0px;line-height:120%;opacity:1&quot;&gt;启动集群间通信服务器并监听到服务器的请求&lt;/font&gt;&lt;/p&gt;&lt;/div&gt;" tags="Background" id="gA9360L1mvfKF3IkTRkT-23">
          <mxCell style="verticalAlign=middle;align=center;overflow=width;vsdxID=22;fillColor=#FFFFFF;gradientColor=none;shape=stencil(jZFRDsIgEERPs58aYGM9QK33aCwVIkJDqdbbC1mbKiGmfzvDWyaZBaxH1Q4SBBuDdzf51F1QgCcQQlslvQ5xAmwA6955efVush3poU1kmu7ukX6YaY+lDcFepA4kz0ReJk8o/2U/cserfXUkbxbkcbZAogBhDuGW2BVfjEJwFssLsX9DjbYbW4nDWmavjaFbfL/n5UeLDofNGw==);strokeColor=#000000;spacingTop=-3;spacingBottom=-3;spacingLeft=-3;spacingRight=-3;points=[];labelBackgroundColor=none;rounded=0;html=1;whiteSpace=wrap;" vertex="1" parent="1">
            <mxGeometry x="7766" y="3533" width="162" height="137" as="geometry" />
          </mxCell>
        </UserObject>
        <UserObject label="&lt;div style=&quot;font-size: 1px&quot;&gt;&lt;p style=&quot;text-align:center;margin-left:0;margin-right:0;margin-top:0px;margin-bottom:0px;text-indent:0;vertical-align:middle;direction:ltr;&quot;&gt;&lt;font style=&quot;font-size:12px;font-family:0;color:#000000;direction:ltr;letter-spacing:0px;line-height:120%;opacity:1&quot;&gt;是否停止服务器？&lt;/font&gt;&lt;/p&gt;&lt;/div&gt;" tags="Background" id="gA9360L1mvfKF3IkTRkT-24">
          <mxCell style="verticalAlign=middle;align=center;overflow=width;vsdxID=23;fillColor=#FFFFFF;gradientColor=none;shape=stencil(UzV2Ls5ILEhVNTIoLinKz04tz0wpyVA1dlE1MsrMy0gtyiwBslSNXVWNndPyi1LTi/JL81Ig/IJEkEoQKze/DGRCBUSfAUiHkUElhGcK4bpBVOZk5iGpNEVVikeloQHZpsK0YlWLz1QgA+HFtMycHEgIIcujBwlQCBKcxq4A);strokeColor=#000000;spacingTop=-3;spacingBottom=-3;spacingLeft=-3;spacingRight=-3;points=[];labelBackgroundColor=none;rounded=0;html=1;whiteSpace=wrap;" vertex="1" parent="1">
            <mxGeometry x="7787" y="3389" width="120" height="80" as="geometry" />
          </mxCell>
        </UserObject>
        <UserObject label="&lt;div style=&quot;font-size: 1px&quot;&gt;&lt;p style=&quot;text-align:center;margin-left:0;margin-right:0;margin-top:0px;margin-bottom:0px;text-indent:0;vertical-align:middle;direction:ltr;&quot;&gt;&lt;font style=&quot;font-size:12px;font-family:0;color:#000000;direction:ltr;letter-spacing:0px;line-height:120%;opacity:1&quot;&gt;从服务器获取到来的连接&lt;/font&gt;&lt;/p&gt;&lt;/div&gt;" tags="Background" id="gA9360L1mvfKF3IkTRkT-25">
          <mxCell style="verticalAlign=middle;align=center;overflow=width;vsdxID=24;fillColor=#FFFFFF;gradientColor=none;shape=stencil(nZBRDoQgDERP03+WHsHFe5iISyOCQdT19kIaIxq//Jtp3zTpAFaTaUYNUkwx+F6v1EYD+AUpyRkdKCYFqACrzgf9C352LfuxyWRWg1/yhT/nRE5IsZWuZtCSK8CPeI0e/hF+jV7AJM4PO7KWCyr390bSiNtEtQM=);strokeColor=#000000;spacingTop=-3;spacingBottom=-3;spacingLeft=-3;spacingRight=-3;points=[];labelBackgroundColor=none;rounded=0;html=1;whiteSpace=wrap;" vertex="1" parent="1">
            <mxGeometry x="7797" y="3225" width="100" height="70" as="geometry" />
          </mxCell>
        </UserObject>
        <UserObject label="&lt;div style=&quot;font-size: 1px&quot;&gt;&lt;p style=&quot;text-align:center;margin-left:0;margin-right:0;margin-top:0px;margin-bottom:0px;text-indent:0;vertical-align:middle;direction:ltr;&quot;&gt;&lt;font style=&quot;font-size:12px;font-family:0;color:#000000;direction:ltr;letter-spacing:0px;line-height:120%;opacity:1&quot;&gt;处理连接&lt;/font&gt;&lt;/p&gt;&lt;/div&gt;" tags="Background" id="gA9360L1mvfKF3IkTRkT-26">
          <mxCell style="verticalAlign=middle;align=center;overflow=width;vsdxID=25;fillColor=#FFFFFF;gradientColor=none;shape=stencil(lZLbDoIwDIafZrdkdKjhGvE9SBiyiAzHUHx7mUXGBlniXQ9/+7VbCcv6uug4AdprJW/8JUpdE3YmAKKtuRJ6sgjLCcsqqfhVyaEt0e8KozTWXT5NhxHrqKkA+kbvEJ3ib+CC2sdQlEYbu2LXHQHdZM7COjs3akS7gqZHh0oDyJiGoTYP+yu4ZCufJ0kiSP/BL4HfAMsu3kC7+MSBe9LwY2/A3t6bTVxy+J8nwx5IJZoG72ud9w9qCuExsvwD);strokeColor=#000000;spacingTop=-3;spacingBottom=-3;spacingLeft=-3;spacingRight=-3;points=[];labelBackgroundColor=none;rounded=0;html=1;whiteSpace=wrap;" vertex="1" parent="1">
            <mxGeometry x="7797" y="3061" width="100" height="70" as="geometry" />
          </mxCell>
        </UserObject>
        <UserObject label="&lt;div style=&quot;font-size: 1px&quot;&gt;&lt;p style=&quot;text-align:center;margin-left:0;margin-right:0;margin-top:0px;margin-bottom:0px;text-indent:0;vertical-align:middle;direction:ltr;&quot;&gt;&lt;font style=&quot;font-size:12px;font-family:0;color:#000000;direction:ltr;letter-spacing:0px;line-height:120%;opacity:1&quot;&gt;对方的servcerId 小于自己的serverId吗？&lt;/font&gt;&lt;/p&gt;&lt;/div&gt;" tags="Background" id="gA9360L1mvfKF3IkTRkT-27">
          <mxCell style="verticalAlign=middle;align=center;overflow=width;vsdxID=26;fillColor=#FFFFFF;gradientColor=none;shape=stencil(UzV2Ls5ILEhVNTIoLinKz04tz0wpyVA1dlE1MsrMy0gtyiwBslSNXVWNndPyi1LTi/JL81Ig/IJEkEoQKze/DGRCBUSfAUiHkUElhGcK4bpBVOZk5iGpNEVVikeloQHZpsK0YlWLz1QgA+HFtMycHEgIIcujBwlQCBKcxq4A);strokeColor=#000000;spacingTop=-3;spacingBottom=-3;spacingLeft=-3;spacingRight=-3;points=[];labelBackgroundColor=none;rounded=0;html=1;whiteSpace=wrap;" vertex="1" parent="1">
            <mxGeometry x="7740" y="2649" width="214" height="130" as="geometry" />
          </mxCell>
        </UserObject>
        <UserObject label="&lt;div style=&quot;font-size: 1px&quot;&gt;&lt;p style=&quot;text-align:center;margin-left:0;margin-right:0;margin-top:0px;margin-bottom:0px;text-indent:0;vertical-align:middle;direction:ltr;&quot;&gt;&lt;font style=&quot;font-size:12px;font-family:0;color:#000000;direction:ltr;letter-spacing:0px;line-height:120%;opacity:1&quot;&gt;关闭连接并&lt;/font&gt;&lt;font style=&quot;font-size:NaNpx;font-family:0;color:#000000;direction:ltr;letter-spacing:0px;line-height:120%;opacity:1&quot;&gt;创建到对方的连接&lt;/font&gt;&lt;/p&gt;&lt;/div&gt;" tags="Background" id="gA9360L1mvfKF3IkTRkT-28">
          <mxCell style="verticalAlign=middle;align=center;overflow=width;vsdxID=27;fillColor=#FFFFFF;gradientColor=none;shape=stencil(lVLLDoMgEPwargQXo+nZ2v8wESupFYuP2r+vdG0BNSS97WOWmV2G8Kyvi04QYP2g1U08ZTnUhJ8JgGxroeWwRITnhGeV0uKq1diWmHeFQZroribzwoxzzEwAe2HGaRp/ChfEPsaiNNjIB/vpDJgCjdc+uP31qUa2Du0ppYnHzAK0EQsT2z4cr+FzW/iqJaGQ/EP/K3wFONtsJB0KsIc6BIePviPf7L7bxucO//cSWKNUsmnQZ25/a6ylhKbk+Rs=);strokeColor=#000000;spacingTop=-3;spacingBottom=-3;spacingLeft=-3;spacingRight=-3;points=[];labelBackgroundColor=none;rounded=0;html=1;whiteSpace=wrap;" vertex="1" parent="1">
            <mxGeometry x="7764" y="2425" width="167" height="107" as="geometry" />
          </mxCell>
        </UserObject>
        <UserObject label="&lt;div style=&quot;font-size: 1px&quot;&gt;&lt;p style=&quot;text-align:center;margin-left:0;margin-right:0;margin-top:0px;margin-bottom:0px;text-indent:0;vertical-align:middle;direction:ltr;&quot;&gt;&lt;font style=&quot;font-size:12px;font-family:0;color:#000000;direction:ltr;letter-spacing:0px;line-height:120%;opacity:1&quot;&gt;受是否同步处理？&lt;/font&gt;&lt;/p&gt;&lt;/div&gt;" tags="Background" id="gA9360L1mvfKF3IkTRkT-29">
          <mxCell style="verticalAlign=middle;align=center;overflow=width;vsdxID=28;fillColor=#FFFFFF;gradientColor=none;shape=stencil(UzV2Ls5ILEhVNTIoLinKz04tz0wpyVA1dlE1MsrMy0gtyiwBslSNXVWNndPyi1LTi/JL81Ig/IJEkEoQKze/DGRCBUSfAUiHkUElhGcK4bpBVOZk5iGpNEVVikeloQHZpsK0YlWLz1QgA+HFtMycHEgIIcujBwlQCBKcxq4A);strokeColor=#000000;spacingTop=-3;spacingBottom=-3;spacingLeft=-3;spacingRight=-3;points=[];labelBackgroundColor=none;rounded=0;html=1;whiteSpace=wrap;" vertex="1" parent="1">
            <mxGeometry x="7779" y="2853" width="136" height="109" as="geometry" />
          </mxCell>
        </UserObject>
        <UserObject label="&lt;div style=&quot;font-size: 1px&quot;&gt;&lt;p style=&quot;text-align:center;margin-left:0;margin-right:0;margin-top:0px;margin-bottom:0px;text-indent:0;vertical-align:middle;direction:ltr;&quot;&gt;&lt;font style=&quot;font-size:12px;font-family:0;color:#000000;direction:ltr;letter-spacing:0px;line-height:120%;opacity:1&quot;&gt;创建异步任务&lt;/font&gt;&lt;/p&gt;&lt;/div&gt;" tags="Background" id="gA9360L1mvfKF3IkTRkT-30">
          <mxCell style="verticalAlign=middle;align=center;overflow=width;vsdxID=29;fillColor=#FFFFFF;gradientColor=none;shape=stencil(lZLbDoIwDIafZrdkdKjhGvE9SBiyiAzHUHx7mUXGBlniXQ9/+7VbCcv6uug4AdprJW/8JUpdE3YmAKKtuRJ6sgjLCcsqqfhVyaEt0e8KozTWXT5NhxHrqKkA+kbvEJ3ib+CC2sdQlEYbu2LXHQHdZM7COjs3akS7gqZHh0oDyJiGoTYP+yu4ZCufJ0kiSP/BL4HfAMsu3kC7+MSBe9LwY2/A3t6bTVxy+J8nwx5IJZoG72ud9w9qCuExsvwD);strokeColor=#000000;spacingTop=-3;spacingBottom=-3;spacingLeft=-3;spacingRight=-3;points=[];labelBackgroundColor=none;rounded=0;html=1;whiteSpace=wrap;" vertex="1" parent="1">
            <mxGeometry x="8077" y="2872" width="100" height="70" as="geometry" />
          </mxCell>
        </UserObject>
        <UserObject label="&lt;div style=&quot;font-size: 1px&quot;&gt;&lt;p style=&quot;text-align:center;margin-left:0;margin-right:0;margin-top:0px;margin-bottom:0px;text-indent:0;vertical-align:middle;direction:ltr;&quot;&gt;&lt;font style=&quot;font-size:12px;font-family:0;color:#000000;direction:ltr;letter-spacing:0px;line-height:120%;opacity:1&quot;&gt;&lt;br/&gt;&lt;/font&gt;&lt;font style=&quot;font-size:12px;font-family:0;color:#000000;direction:ltr;letter-spacing:0px;line-height:120%;opacity:1&quot;&gt;SenderWorker&lt;br/&gt;&lt;/font&gt;&lt;font style=&quot;font-size:12px;font-family:0;color:#000000;direction:ltr;letter-spacing:0px;line-height:120%;opacity:1&quot;&gt;&lt;br/&gt;&lt;/font&gt;&lt;/p&gt;&lt;/div&gt;" tags="Background" id="gA9360L1mvfKF3IkTRkT-31">
          <mxCell style="verticalAlign=middle;align=center;overflow=width;vsdxID=30;fillColor=#FFFFFF;gradientColor=none;shape=stencil(jZFRDsIgEERPs58aYGM9QK33aCwVIkJDqdbbC1mbKiGmfzvDWyaZBaxH1Q4SBBuDdzf51F1QgCcQQlslvQ5xAmwA6955efVush3poU1kmu7ukX6YaY+lDcFepA4kz0ReJk8o/2U/cserfXUkbxbkcbZAogBhDuGW2BVfjEJwFssLsX9DjbYbW4nDWmavjaFbfL/n5UeLDofNGw==);strokeColor=#000000;spacingTop=-3;spacingBottom=-3;spacingLeft=-3;spacingRight=-3;points=[];labelBackgroundColor=none;rounded=0;html=1;whiteSpace=wrap;" vertex="1" parent="1">
            <mxGeometry x="8625" y="2298" width="157" height="145" as="geometry" />
          </mxCell>
        </UserObject>
        <UserObject label="&lt;div style=&quot;font-size: 1px&quot;&gt;&lt;p style=&quot;text-align:center;margin-left:0;margin-right:0;margin-top:0px;margin-bottom:0px;text-indent:0;vertical-align:middle;direction:ltr;&quot;&gt;&lt;font style=&quot;font-size:12px;font-family:0;color:#000000;direction:ltr;letter-spacing:0px;line-height:120%;opacity:1&quot;&gt;RecvWorker&lt;br/&gt;&lt;/font&gt;&lt;font style=&quot;font-size:12px;font-family:0;color:#000000;direction:ltr;letter-spacing:0px;line-height:120%;opacity:1&quot;&gt;&lt;br/&gt;&lt;/font&gt;&lt;/p&gt;&lt;/div&gt;" tags="Background" id="gA9360L1mvfKF3IkTRkT-32">
          <mxCell style="verticalAlign=middle;align=center;overflow=width;vsdxID=31;fillColor=#FFFFFF;gradientColor=none;shape=stencil(jZFRDsIgEERPs58aYGM9QK33aCwVIkJDqdbbC1mbKiGmfzvDWyaZBaxH1Q4SBBuDdzf51F1QgCcQQlslvQ5xAmwA6955efVush3poU1kmu7ukX6YaY+lDcFepA4kz0ReJk8o/2U/cserfXUkbxbkcbZAogBhDuGW2BVfjEJwFssLsX9DjbYbW4nDWmavjaFbfL/n5UeLDofNGw==);strokeColor=#000000;spacingTop=-3;spacingBottom=-3;spacingLeft=-3;spacingRight=-3;points=[];labelBackgroundColor=none;rounded=0;html=1;whiteSpace=wrap;" vertex="1" parent="1">
            <mxGeometry x="8625" y="2496" width="157" height="152" as="geometry" />
          </mxCell>
        </UserObject>
        <UserObject label="&lt;div style=&quot;font-size: 1px&quot;&gt;&lt;p style=&quot;text-align:left;margin-left:0;margin-right:0;margin-top:0px;margin-bottom:0px;text-indent:0;vertical-align:middle;direction:ltr;&quot;&gt;&lt;font style=&quot;font-size:12px;font-family:0;color:#000000;direction:ltr;letter-spacing:0px;line-height:120%;opacity:1&quot;&gt;创建SenderWorker和RecvWorker&lt;br/&gt;&lt;/font&gt;&lt;font style=&quot;font-size:12px;font-family:0;color:#000000;direction:ltr;letter-spacing:0px;line-height:120%;opacity:1&quot;&gt;属于QuorumCnxManager 的内部类&lt;/font&gt;&lt;/p&gt;&lt;/div&gt;" tags="Background" id="gA9360L1mvfKF3IkTRkT-33">
          <mxCell style="verticalAlign=middle;align=left;overflow=width;vsdxID=32;fillColor=#FFFFFF;gradientColor=none;shape=stencil(lVLRDoIwDPyavS6jMyDPiP9BwpBFZDiG4t/LLMIGBONbr73url0JT9oyawQB1hqtruIpc1MSfiIAsi6FlmaICE8JTwqlxUWrrs4RN5ll2uimHvaFHvuY7QD2QsRpHH4SZ+Teuyy33MAn+7AHhAGFaCSASxjfqmTt6MZHGnFPm+0IB+yH9FSH7UF88Zk+mgkpO/wjPyW+BtxxFp62Hcy72mTvL34lv5h+NY8vvv/nQzAfSyGrCm/NrS+Pa0jhYfL0DQ==);strokeColor=#000000;spacingTop=-3;spacingBottom=-3;spacingLeft=-3;spacingRight=-3;points=[];labelBackgroundColor=none;rounded=0;html=1;whiteSpace=wrap;" vertex="1" parent="1">
            <mxGeometry x="8154" y="2428" width="316" height="101" as="geometry" />
          </mxCell>
        </UserObject>
        <UserObject label="&lt;div style=&quot;font-size: 1px&quot;&gt;&lt;p style=&quot;text-align:center;margin-left:0;margin-right:0;margin-top:0px;margin-bottom:0px;text-indent:0;vertical-align:middle;direction:ltr;&quot;&gt;&lt;font style=&quot;font-size:12px;font-family:0;color:#000000;direction:ltr;letter-spacing:0px;line-height:120%;opacity:1&quot;&gt;启动Leader选举算法 FastLeaderElection&lt;/font&gt;&lt;/p&gt;&lt;/div&gt;" tags="Background" id="gA9360L1mvfKF3IkTRkT-34">
          <mxCell style="verticalAlign=middle;align=center;overflow=width;vsdxID=33;fillColor=#FFFFFF;gradientColor=none;shape=stencil(lVLLEoIwDPyaXjttKqOcEf+DGYp0RIrlIf691CC0wOB4yyab7iYNEVGdJ5UkwOrG6Jt8qrTJiTgTAFXm0qhmiIiIiYgybeTV6LZMEVeJZdrorjv7Qo99zHYAeyEK6JF/EhfkPtoktVzuk33YA0JOWTASwCWMbxWqdHTDEw0DT5vtCHP2Q3qqw/YgvvhMH80cKIT/yE+JrwF3nIWnbQfzrjbZ+4tfyS+mX83ji+//+RDMx5KposBbc+vL4xpSeJgifgM=);strokeColor=#000000;spacingTop=-3;spacingBottom=-3;spacingLeft=-3;spacingRight=-3;points=[];labelBackgroundColor=none;rounded=0;html=1;whiteSpace=wrap;" vertex="1" parent="1">
            <mxGeometry x="7657" y="3970" width="380" height="70" as="geometry" />
          </mxCell>
        </UserObject>
        <UserObject label="&lt;div style=&quot;font-size: 1px&quot;&gt;&lt;p style=&quot;text-align:center;margin-left:0;margin-right:0;margin-top:0px;margin-bottom:0px;text-indent:0;vertical-align:middle;direction:ltr;&quot;&gt;&lt;font style=&quot;font-size:12px;font-family:0;color:#000000;direction:ltr;letter-spacing:0px;line-height:120%;opacity:1&quot;&gt;WorkerSender&lt;br/&gt;&lt;/font&gt;&lt;/p&gt;&lt;/div&gt;" tags="Background" id="gA9360L1mvfKF3IkTRkT-35">
          <mxCell style="verticalAlign=middle;align=center;overflow=width;vsdxID=34;fillColor=#FFFFFF;gradientColor=none;shape=stencil(jZFRDsIgEERPs58aYGM9QK33aCwVIkJDqdbbC1mbKiGmfzvDWyaZBaxH1Q4SBBuDdzf51F1QgCcQQlslvQ5xAmwA6955efVush3poU1kmu7ukX6YaY+lDcFepA4kz0ReJk8o/2U/cserfXUkbxbkcbZAogBhDuGW2BVfjEJwFssLsX9DjbYbW4nDWmavjaFbfL/n5UeLDofNGw==);strokeColor=#000000;spacingTop=-3;spacingBottom=-3;spacingLeft=-3;spacingRight=-3;points=[];labelBackgroundColor=none;rounded=0;html=1;whiteSpace=wrap;" vertex="1" parent="1">
            <mxGeometry x="8192" y="3832" width="157" height="145" as="geometry" />
          </mxCell>
        </UserObject>
        <UserObject label="&lt;div style=&quot;font-size: 1px&quot;&gt;&lt;p style=&quot;text-align:center;margin-left:0;margin-right:0;margin-top:0px;margin-bottom:0px;text-indent:0;vertical-align:middle;direction:ltr;&quot;&gt;&lt;font style=&quot;font-size:12px;font-family:0;color:#000000;direction:ltr;letter-spacing:0px;line-height:120%;opacity:1&quot;&gt;RecvWorker&lt;/font&gt;&lt;/p&gt;&lt;/div&gt;" tags="Background" id="gA9360L1mvfKF3IkTRkT-36">
          <mxCell style="verticalAlign=middle;align=center;overflow=width;vsdxID=35;fillColor=#FFFFFF;gradientColor=none;shape=stencil(jZFRDsIgEERPs58aYGM9QK33aCwVIkJDqdbbC1mbKiGmfzvDWyaZBaxH1Q4SBBuDdzf51F1QgCcQQlslvQ5xAmwA6955efVush3poU1kmu7ukX6YaY+lDcFepA4kz0ReJk8o/2U/cserfXUkbxbkcbZAogBhDuGW2BVfjEJwFssLsX9DjbYbW4nDWmavjaFbfL/n5UeLDofNGw==);strokeColor=#000000;spacingTop=-3;spacingBottom=-3;spacingLeft=-3;spacingRight=-3;points=[];labelBackgroundColor=none;rounded=0;html=1;whiteSpace=wrap;" vertex="1" parent="1">
            <mxGeometry x="8192" y="4030" width="157" height="152" as="geometry" />
          </mxCell>
        </UserObject>
        <UserObject label="&lt;div style=&quot;font-size: 1px&quot;&gt;&lt;p style=&quot;text-align:center;margin-left:0;margin-right:0;margin-top:0px;margin-bottom:0px;text-indent:0;vertical-align:middle;direction:ltr;&quot;&gt;&lt;font style=&quot;font-size:12px;font-family:0;color:#000000;direction:ltr;letter-spacing:0px;line-height:120%;opacity:1&quot;&gt;启动 QuorumPeer&lt;/font&gt;&lt;/p&gt;&lt;/div&gt;" tags="Background" id="gA9360L1mvfKF3IkTRkT-37">
          <mxCell style="verticalAlign=middle;align=center;overflow=width;vsdxID=36;fillColor=#FFFFFF;gradientColor=none;shape=stencil(lVJBEoIwDHxNr52SKOIZ8R/MUKQjUixF8fdSi9ACg+Mtm2y6mzQE46ZIa06ANVrJK3+KTBcETwRAVAVXQvcRwYRgnEvFL0q2VWZxnRqmiW7yYV7obB8zHcBeFu0p4idxttx7m2aGG/hkH3ZgYUDDaCCASxjeKkXl6B4jiuBpsw3hgP2QHuuwPogvPtEHMzsaHv6RHxNfA+44M0/rDqZdrbK3F7+Qn02/mMcX3/7zPpiOJRdlaW/Nrc+Pq0/Zw8TkDQ==);strokeColor=#000000;spacingTop=-3;spacingBottom=-3;spacingLeft=-3;spacingRight=-3;points=[];labelBackgroundColor=none;rounded=0;html=1;whiteSpace=wrap;" vertex="1" parent="1">
            <mxGeometry x="7162" y="4916" width="237" height="75" as="geometry" />
          </mxCell>
        </UserObject>
        <UserObject label="&lt;div style=&quot;font-size: 1px&quot;&gt;&lt;p style=&quot;text-align:center;margin-left:0;margin-right:0;margin-top:0px;margin-bottom:0px;text-indent:0;vertical-align:middle;direction:ltr;&quot;&gt;&lt;font style=&quot;font-size:12px;font-family:0;color:#000000;direction:ltr;letter-spacing:0px;line-height:120%;opacity:1&quot;&gt;系统启动结束&lt;/font&gt;&lt;/p&gt;&lt;/div&gt;" tags="Background" id="gA9360L1mvfKF3IkTRkT-38">
          <mxCell style="verticalAlign=middle;align=center;overflow=width;vsdxID=37;fillColor=#FFFFFF;gradientColor=none;shape=stencil(nZBRDoQgDERP03+WHsHFe5iISyOCQdT19kIaIxq//Jtp3zTpAFaTaUYNUkwx+F6v1EYD+AUpyRkdKCYFqACrzgf9C352LfuxyWRWg1/yhT/nRE5IsZWuZtCSK8CPeI0e/hF+jV7AJM4PO7KWCyr390bSiNtEtQM=);strokeColor=#000000;spacingTop=-3;spacingBottom=-3;spacingLeft=-3;spacingRight=-3;points=[];labelBackgroundColor=none;rounded=0;html=1;whiteSpace=wrap;" vertex="1" parent="1">
            <mxGeometry x="6493" y="4916" width="237" height="89" as="geometry" />
          </mxCell>
        </UserObject>
        <UserObject label="&lt;div style=&quot;font-size: 1px&quot;&gt;&lt;p style=&quot;text-align:center;margin-left:0;margin-right:0;margin-top:0px;margin-bottom:0px;text-indent:0;vertical-align:middle;direction:ltr;&quot;&gt;&lt;font style=&quot;font-size:12px;font-family:0;color:#000000;direction:ltr;letter-spacing:0px;line-height:120%;opacity:1&quot;&gt;QuorumPeer&lt;/font&gt;&lt;/p&gt;&lt;/div&gt;" tags="Background" id="gA9360L1mvfKF3IkTRkT-39">
          <mxCell style="verticalAlign=middle;align=center;overflow=width;vsdxID=38;fillColor=#FFFFFF;gradientColor=none;shape=stencil(jZFRDsIgEERPs58aYGM9QK33aCwVIkJDqdbbC1mbKiGmfzvDWyaZBaxH1Q4SBBuDdzf51F1QgCcQQlslvQ5xAmwA6955efVush3poU1kmu7ukX6YaY+lDcFepA4kz0ReJk8o/2U/cserfXUkbxbkcbZAogBhDuGW2BVfjEJwFssLsX9DjbYbW4nDWmavjaFbfL/n5UeLDofNGw==);strokeColor=#000000;spacingTop=-3;spacingBottom=-3;spacingLeft=-3;spacingRight=-3;points=[];labelBackgroundColor=none;rounded=0;html=1;whiteSpace=wrap;" vertex="1" parent="1">
            <mxGeometry x="7188" y="5075" width="185" height="176" as="geometry" />
          </mxCell>
        </UserObject>
        <UserObject label="&lt;div style=&quot;font-size: 1px&quot;&gt;&lt;p style=&quot;text-align:center;margin-left:0;margin-right:0;margin-top:0px;margin-bottom:0px;text-indent:0;vertical-align:middle;direction:ltr;&quot;&gt;&lt;font style=&quot;font-size:12px;font-family:0;color:#000000;direction:ltr;letter-spacing:0px;line-height:120%;opacity:1&quot;&gt;注册MBena&lt;/font&gt;&lt;/p&gt;&lt;/div&gt;" tags="Background" id="gA9360L1mvfKF3IkTRkT-40">
          <mxCell style="verticalAlign=middle;align=center;overflow=width;vsdxID=39;fillColor=#FFFFFF;gradientColor=none;shape=stencil(lZLREoIgEEW/hlcGlxrt2ew/nBGTycQQy/4+aS2BHGZ627vc5ezCEp4PTdkLAmwwWl3EQ1amIfxIAGTXCC3NHBFeEJ7XSouzVmNXoe5L67TRVd3tDRPWMVsB7IlqT7O3PqH1NpaVtSa+15cToASapIsBXMNyVys7B3tIacY9NIuAExZHr+ewOYfPXt1LLzsK/8C/iQ/eHSboaLMB56U23fFn/8EHs4fj+Ozof8/Buie1bFtcM/c83Ks5hTvJixc=);strokeColor=#000000;spacingTop=-3;spacingBottom=-3;spacingLeft=-3;spacingRight=-3;points=[];labelBackgroundColor=none;rounded=0;html=1;whiteSpace=wrap;" vertex="1" parent="1">
            <mxGeometry x="7188" y="5318" width="184" height="69" as="geometry" />
          </mxCell>
        </UserObject>
        <UserObject label="&lt;div style=&quot;font-size: 1px&quot;&gt;&lt;p style=&quot;text-align:center;margin-left:0;margin-right:0;margin-top:0px;margin-bottom:0px;text-indent:0;vertical-align:middle;direction:ltr;&quot;&gt;&lt;font style=&quot;font-size:12px;font-family:0;color:#000000;direction:ltr;letter-spacing:0px;line-height:120%;opacity:1&quot;&gt;是否停止？&lt;/font&gt;&lt;/p&gt;&lt;/div&gt;" tags="Background" id="gA9360L1mvfKF3IkTRkT-41">
          <mxCell style="verticalAlign=middle;align=center;overflow=width;vsdxID=40;fillColor=#FFFFFF;gradientColor=none;shape=stencil(UzV2Ls5ILEhVNTIoLinKz04tz0wpyVA1dlE1MsrMy0gtyiwBslSNXVWNndPyi1LTi/JL81Ig/IJEkEoQKze/DGRCBUSfAUiHkUElhGcK4bpBVOZk5iGpNEVVikeloQHZpsK0YlWLz1QgA+HFtMycHEgIIcujBwlQCBKcxq4A);strokeColor=#000000;spacingTop=-3;spacingBottom=-3;spacingLeft=-3;spacingRight=-3;points=[];labelBackgroundColor=none;rounded=0;html=1;whiteSpace=wrap;" vertex="1" parent="1">
            <mxGeometry x="7220" y="5498" width="120" height="80" as="geometry" />
          </mxCell>
        </UserObject>
        <UserObject label="&lt;div style=&quot;font-size: 1px&quot;&gt;&lt;p style=&quot;text-align:left;margin-left:0;margin-right:0;margin-top:0px;margin-bottom:0px;text-indent:0;vertical-align:top;direction:ltr;&quot;&gt;&lt;font style=&quot;font-size:12px;font-family:0;color:#000000;direction:ltr;letter-spacing:0px;line-height:120%;opacity:1&quot;&gt;&lt;br/&gt;&lt;br/&gt;&lt;/font&gt;&lt;font style=&quot;font-size:12px;font-family:0;color:#000000;direction:ltr;letter-spacing:0px;line-height:120%;opacity:1&quot;&gt;一个 Zookeeper 节点实例，在主循环中根据当前集节点的状态（Leader、Follower、Observing）启动对应的服务器。&lt;br/&gt;&lt;/font&gt;&lt;font style=&quot;font-size:12px;font-family:0;color:#000000;direction:ltr;letter-spacing:0px;line-height:120%;opacity:1&quot;&gt;&lt;br/&gt;&lt;br/&gt;&lt;/font&gt;&lt;font style=&quot;font-size:12px;font-family:0;color:#000000;direction:ltr;letter-spacing:0px;line-height:120%;opacity:1&quot;&gt; 当状态变更时循环继续进入下一轮，从而变更节点的状态。&lt;br/&gt;&lt;/font&gt;&lt;font style=&quot;font-size:12px;font-family:0;color:#000000;direction:ltr;letter-spacing:0px;line-height:120%;opacity:1&quot;&gt;&lt;br/&gt;&lt;br/&gt;&lt;/font&gt;&lt;font style=&quot;font-size:12px;font-family:0;color:#000000;direction:ltr;letter-spacing:0px;line-height:120%;opacity:1&quot;&gt;这一部分的数据交换都需要连接Leader的HTTP接口&lt;/font&gt;&lt;/p&gt;&lt;/div&gt;" tags="Background" id="gA9360L1mvfKF3IkTRkT-42">
          <mxCell style="verticalAlign=top;align=left;overflow=width;vsdxID=41;fillColor=#ffffaa;gradientColor=none;shape=stencil(UzV2Ls5ILEhVNTIoLinKz04tz0wpyVA1dlE1MsrMy0gtyiwBslSNXVWNndPyi1LTi/JL81Ig/IJEkEoQKze/DGRCBUSfAUiHkUElMs8NojAnMw9JoaWZnrkxsYoNDVDNtdQzsCReNYyPVTHZSslTCGQggi4tMycHWQY9kIFCkAgydgUA);strokeColor=none;strokeWidth=0;spacingTop=-3;spacingBottom=-3;spacingLeft=-3;spacingRight=-3;points=[];labelBackgroundColor=none;rounded=0;html=1;whiteSpace=wrap;" vertex="1" parent="1">
            <mxGeometry x="7403" y="5050" width="489" height="176" as="geometry" />
          </mxCell>
        </UserObject>
        <UserObject label="" tags="Background" id="gA9360L1mvfKF3IkTRkT-43">
          <mxCell style="vsdxID=42;fillColor=#NaNNaNNaN;gradientColor=none;shape=stencil(UzV2Ls5ILEhVNTIoLinKz04tz0wpyVA1dlE1MsrMy0gtyiwBslSNXVWNndPyi1LTi/JL81Ig/IJEkEoQKze/DGRCBUSfpZmeuTFIl5FBJUTEAMxzgyjOyczDq9hSz8ASt3pDAwMSVBNwCpCB8ERaZk4OJAyQ5dE9DRSCBJixKwA=);strokeColor=#000000;spacingTop=-3;spacingBottom=-3;spacingLeft=-3;spacingRight=-3;points=[];labelBackgroundColor=none;rounded=0;html=1;whiteSpace=wrap;" vertex="1" parent="1">
            <mxGeometry x="7403" y="5050" width="489" height="176" as="geometry" />
          </mxCell>
        </UserObject>
        <UserObject label="" tags="Background" id="gA9360L1mvfKF3IkTRkT-44">
          <mxCell style="vsdxID=43;fillColor=none;gradientColor=none;shape=stencil(UzV2Ls5ILEhVNTIoLinKz04tz0wpyVA1dlE1MsrMy0gtyiwBslSNXVWNndPyi1LTi/JL81Ig/IJEkEoQKze/DGRCBUSfAUiHkUElMs8NojAnMw9JoaWZnrkxsYoNDVDNtdQzsCReNYyPVTHZSslTCGQggg4S6shy6MEMFIJEkbErAA==);strokeColor=#000000;spacingTop=-3;spacingBottom=-3;spacingLeft=-3;spacingRight=-3;points=[];labelBackgroundColor=none;rounded=0;html=1;whiteSpace=wrap;" vertex="1" parent="1">
            <mxGeometry x="7403" y="5050" width="489" height="176" as="geometry" />
          </mxCell>
        </UserObject>
        <UserObject label="&lt;div style=&quot;font-size: 1px&quot;&gt;&lt;p style=&quot;text-align:left;margin-left:0;margin-right:0;margin-top:0px;margin-bottom:0px;text-indent:0;vertical-align:top;direction:ltr;&quot;&gt;&lt;font style=&quot;font-size:12px;font-family:0;color:#000000;direction:ltr;letter-spacing:0px;line-height:120%;opacity:1&quot;&gt;&lt;br/&gt;&lt;/font&gt;&lt;font style=&quot;font-size:12px;font-family:0;color:#000000;direction:ltr;letter-spacing:0px;line-height:120%;opacity:1&quot;&gt;从 QuorumCnxManager 的接收消息队列取数据，解析消息，验证消息合法性。&lt;br/&gt;&lt;/font&gt;&lt;font style=&quot;font-size:12px;font-family:0;color:#000000;direction:ltr;letter-spacing:0px;line-height:120%;opacity:1&quot;&gt;如果本机处于Looking状态则把接收到的消息放在 FastLeaderElection 的 recv队列中供 QuorumPeer 使用。&lt;/font&gt;&lt;font style=&quot;font-size:NaNpx;font-family:0;color:#000000;direction:ltr;letter-spacing:0px;line-height:120%;opacity:1&quot;&gt;同时如果对方的选举周期小于自己的则把自己作为Leader发送给对方。&lt;/font&gt;&lt;/p&gt;&lt;/div&gt;" tags="Background" id="gA9360L1mvfKF3IkTRkT-45">
          <mxCell style="verticalAlign=top;align=left;overflow=width;vsdxID=44;fillColor=#ffffaa;gradientColor=none;shape=stencil(UzV2Ls5ILEhVNTIoLinKz04tz0wpyVA1dlE1MsrMy0gtyiwBslSNXVWNndPyi1LTi/JL81Ig/IJEkEoQKze/DGRCBUSfAUiHkUElMs8NojAnMw9JoaW5nhGxag0NUI01NNSzNCdBuQEes8lWSp5CIAMRdGmZOTnIMuiBDBSCRJCxKwA=);strokeColor=none;strokeWidth=0;spacingTop=-3;spacingBottom=-3;spacingLeft=-3;spacingRight=-3;points=[];labelBackgroundColor=none;rounded=0;html=1;whiteSpace=wrap;" vertex="1" parent="1">
            <mxGeometry x="8399" y="4040" width="572" height="133" as="geometry" />
          </mxCell>
        </UserObject>
        <UserObject label="" tags="Background" id="gA9360L1mvfKF3IkTRkT-46">
          <mxCell style="vsdxID=45;fillColor=#NaNNaNNaN;gradientColor=none;shape=stencil(UzV2Ls5ILEhVNTIoLinKz04tz0wpyVA1dlE1MsrMy0gtyiwBslSNXVWNndPyi1LTi/JL81Ig/IJEkEoQKze/DGRCBUSfpbmeEUiTkUElRMAAzHODqM3JzMOn1tBQz9Ict3pDAwNSlON3CpCB8ENaZk4OJAiQ5dH9DBSChJexKwA=);strokeColor=#000000;spacingTop=-3;spacingBottom=-3;spacingLeft=-3;spacingRight=-3;points=[];labelBackgroundColor=none;rounded=0;html=1;whiteSpace=wrap;" vertex="1" parent="1">
            <mxGeometry x="8399" y="4040" width="572" height="133" as="geometry" />
          </mxCell>
        </UserObject>
        <UserObject label="" tags="Background" id="gA9360L1mvfKF3IkTRkT-47">
          <mxCell style="vsdxID=46;fillColor=none;gradientColor=none;shape=stencil(UzV2Ls5ILEhVNTIoLinKz04tz0wpyVA1dlE1MsrMy0gtyiwBslSNXVWNndPyi1LTi/JL81Ig/IJEkEoQKze/DGRCBUSfAUiHkUElMs8NojAnMw9JoaW5nhGxag0NUI01NNSzNCdBuQEes8lWSp5CIAMRdJBQR5ZDD2agECSKjF0B);strokeColor=#000000;spacingTop=-3;spacingBottom=-3;spacingLeft=-3;spacingRight=-3;points=[];labelBackgroundColor=none;rounded=0;html=1;whiteSpace=wrap;" vertex="1" parent="1">
            <mxGeometry x="8399" y="4040" width="572" height="133" as="geometry" />
          </mxCell>
        </UserObject>
        <UserObject label="&lt;div style=&quot;font-size: 1px&quot;&gt;&lt;p style=&quot;text-align:left;margin-left:0;margin-right:0;margin-top:0px;margin-bottom:0px;text-indent:0;vertical-align:top;direction:ltr;&quot;&gt;&lt;font style=&quot;font-size:12px;font-family:0;color:#000000;direction:ltr;letter-spacing:0px;line-height:120%;opacity:1&quot;&gt;从 send 阻塞队列中取数据放到 QuorumCnxManager 的发送队列&lt;br/&gt;&lt;/font&gt;&lt;/p&gt;&lt;/div&gt;" tags="Background" id="gA9360L1mvfKF3IkTRkT-48">
          <mxCell style="verticalAlign=top;align=left;overflow=width;vsdxID=47;fillColor=#ffffaa;gradientColor=none;shape=stencil(UzV2Ls5ILEhVNTIoLinKz04tz0wpyVA1dlE1MsrMy0gtyiwBslSNXVWNndPyi1LTi/JL81Ig/IJEkEoQKze/DGRCBUSfAUiHkUElMs8NojAnMw9JoaW5noEpsYoNDVDNNTbWM7MgXjmMj1Ux2UrJUwhkIMIuLTMnB1kGPZSBQpAYMnYFAA==);strokeColor=none;strokeWidth=0;spacingTop=-3;spacingBottom=-3;spacingLeft=-3;spacingRight=-3;points=[];labelBackgroundColor=none;rounded=0;html=1;whiteSpace=wrap;" vertex="1" parent="1">
            <mxGeometry x="8399" y="3832" width="543" height="47" as="geometry" />
          </mxCell>
        </UserObject>
        <UserObject label="" tags="Background" id="gA9360L1mvfKF3IkTRkT-49">
          <mxCell style="vsdxID=48;fillColor=#NaNNaNNaN;gradientColor=none;shape=stencil(UzV2Ls5ILEhVNTIoLinKz04tz0wpyVA1dlE1MsrMy0gtyiwBslSNXVWNndPyi1LTi/JL81Ig/IJEkEoQKze/DGRCBUSfpbmegSlIl5FBJUTEAMxzgyjOyczDq9jYWM/MArcGQwMDUpQTcAyQgfBGWmZODiQUkOXRvQ0UggSZsSsA);strokeColor=#000000;spacingTop=-3;spacingBottom=-3;spacingLeft=-3;spacingRight=-3;points=[];labelBackgroundColor=none;rounded=0;html=1;whiteSpace=wrap;" vertex="1" parent="1">
            <mxGeometry x="8399" y="3832" width="543" height="47" as="geometry" />
          </mxCell>
        </UserObject>
        <UserObject label="" tags="Background" id="gA9360L1mvfKF3IkTRkT-50">
          <mxCell style="vsdxID=49;fillColor=none;gradientColor=none;shape=stencil(UzV2Ls5ILEhVNTIoLinKz04tz0wpyVA1dlE1MsrMy0gtyiwBslSNXVWNndPyi1LTi/JL81Ig/IJEkEoQKze/DGRCBUSfAUiHkUElMs8NojAnMw9JoaW5noEpsYoNDVDNNTbWM7MgXjmMj1Ux2UrJUwhkIMIOEuzIcujhDBSCxJGxKwA=);strokeColor=#000000;spacingTop=-3;spacingBottom=-3;spacingLeft=-3;spacingRight=-3;points=[];labelBackgroundColor=none;rounded=0;html=1;whiteSpace=wrap;" vertex="1" parent="1">
            <mxGeometry x="8399" y="3832" width="543" height="47" as="geometry" />
          </mxCell>
        </UserObject>
        <UserObject label="&lt;div style=&quot;font-size: 1px&quot;&gt;&lt;p style=&quot;text-align:left;margin-left:0;margin-right:0;margin-top:0px;margin-bottom:0px;text-indent:0;vertical-align:top;direction:ltr;&quot;&gt;&lt;font style=&quot;font-size:12px;font-family:0;color:#000000;direction:ltr;letter-spacing:0px;line-height:120%;opacity:1&quot;&gt;每个连接会创建一个RecvWorker，从不同服务器的数据放在同一个阻塞队列中。&lt;br/&gt;&lt;/font&gt;&lt;/p&gt;&lt;/div&gt;" tags="Background" id="gA9360L1mvfKF3IkTRkT-51">
          <mxCell style="verticalAlign=top;align=left;overflow=width;vsdxID=50;fillColor=#ffffaa;gradientColor=none;shape=stencil(UzV2Ls5ILEhVNTIoLinKz04tz0wpyVA1dlE1MsrMy0gtyiwBslSNXVWNndPyi1LTi/JL81Ig/IJEkEoQKze/DGRCBUSfAUiHkUElMs8NojAnMw9JoaW5noEpsYoNDVDNNTbWM7MgXjmMj1Ux2UrJUwhkIMIuLTMnB1kGPZSBQpAYMnYFAA==);strokeColor=none;strokeWidth=0;spacingTop=-3;spacingBottom=-3;spacingLeft=-3;spacingRight=-3;points=[];labelBackgroundColor=none;rounded=0;html=1;whiteSpace=wrap;" vertex="1" parent="1">
            <mxGeometry x="8833" y="2512" width="543" height="47" as="geometry" />
          </mxCell>
        </UserObject>
        <UserObject label="" tags="Background" id="gA9360L1mvfKF3IkTRkT-52">
          <mxCell style="vsdxID=51;fillColor=#NaNNaNNaN;gradientColor=none;shape=stencil(UzV2Ls5ILEhVNTIoLinKz04tz0wpyVA1dlE1MsrMy0gtyiwBslSNXVWNndPyi1LTi/JL81Ig/IJEkEoQKze/DGRCBUSfpbmegSlIl5FBJUTEAMxzgyjOyczDq9jYWM/MArcGQwMDUpQTcAyQgfBGWmZODiQUkOXRvQ0UggSZsSsA);strokeColor=#000000;spacingTop=-3;spacingBottom=-3;spacingLeft=-3;spacingRight=-3;points=[];labelBackgroundColor=none;rounded=0;html=1;whiteSpace=wrap;" vertex="1" parent="1">
            <mxGeometry x="8833" y="2512" width="543" height="47" as="geometry" />
          </mxCell>
        </UserObject>
        <UserObject label="" tags="Background" id="gA9360L1mvfKF3IkTRkT-53">
          <mxCell style="vsdxID=52;fillColor=none;gradientColor=none;shape=stencil(UzV2Ls5ILEhVNTIoLinKz04tz0wpyVA1dlE1MsrMy0gtyiwBslSNXVWNndPyi1LTi/JL81Ig/IJEkEoQKze/DGRCBUSfAUiHkUElMs8NojAnMw9JoaW5noEpsYoNDVDNNTbWM7MgXjmMj1Ux2UrJUwhkIMIOEuzIcujhDBSCxJGxKwA=);strokeColor=#000000;spacingTop=-3;spacingBottom=-3;spacingLeft=-3;spacingRight=-3;points=[];labelBackgroundColor=none;rounded=0;html=1;whiteSpace=wrap;" vertex="1" parent="1">
            <mxGeometry x="8833" y="2512" width="543" height="47" as="geometry" />
          </mxCell>
        </UserObject>
        <UserObject label="&lt;div style=&quot;font-size: 1px&quot;&gt;&lt;p style=&quot;text-align:left;margin-left:0;margin-right:0;margin-top:0px;margin-bottom:0px;text-indent:0;vertical-align:top;direction:ltr;&quot;&gt;&lt;font style=&quot;font-size:12px;font-family:0;color:#000000;direction:ltr;letter-spacing:0px;line-height:120%;opacity:1&quot;&gt;每个连接对应一个 SenderWorker 和一个需要发送数据的队列。&lt;br/&gt;&lt;br/&gt;&lt;/font&gt;&lt;font style=&quot;font-size:12px;font-family:0;color:#000000;direction:ltr;letter-spacing:0px;line-height:120%;opacity:1&quot;&gt;从发送队列中取数据发送给对应的节点&lt;br/&gt;&lt;/font&gt;&lt;/p&gt;&lt;/div&gt;" tags="Background" id="gA9360L1mvfKF3IkTRkT-54">
          <mxCell style="verticalAlign=top;align=left;overflow=width;vsdxID=53;fillColor=#ffffaa;gradientColor=none;shape=stencil(UzV2Ls5ILEhVNTIoLinKz04tz0wpyVA1dlE1MsrMy0gtyiwBslSNXVWNndPyi1LTi/JL81Ig/IJEkEoQKze/DGRCBUSfAUiHkUElMs8NojAnMw9JoaW5noEpsYoNDVDNNTbWM7MgXjmMj1Ux2UrJUwhkIMIuLTMnB1kGPZSBQpAYMnYFAA==);strokeColor=none;strokeWidth=0;spacingTop=-3;spacingBottom=-3;spacingLeft=-3;spacingRight=-3;points=[];labelBackgroundColor=none;rounded=0;html=1;whiteSpace=wrap;" vertex="1" parent="1">
            <mxGeometry x="8833" y="2292" width="543" height="47" as="geometry" />
          </mxCell>
        </UserObject>
        <UserObject label="" tags="Background" id="gA9360L1mvfKF3IkTRkT-55">
          <mxCell style="vsdxID=54;fillColor=#NaNNaNNaN;gradientColor=none;shape=stencil(UzV2Ls5ILEhVNTIoLinKz04tz0wpyVA1dlE1MsrMy0gtyiwBslSNXVWNndPyi1LTi/JL81Ig/IJEkEoQKze/DGRCBUSfpbmegSlIl5FBJUTEAMxzgyjOyczDq9jYWM/MArcGQwMDUpQTcAyQgfBGWmZODiQUkOXRvQ0UggSZsSsA);strokeColor=#000000;spacingTop=-3;spacingBottom=-3;spacingLeft=-3;spacingRight=-3;points=[];labelBackgroundColor=none;rounded=0;html=1;whiteSpace=wrap;" vertex="1" parent="1">
            <mxGeometry x="8833" y="2292" width="543" height="47" as="geometry" />
          </mxCell>
        </UserObject>
        <UserObject label="" tags="Background" id="gA9360L1mvfKF3IkTRkT-56">
          <mxCell style="vsdxID=55;fillColor=none;gradientColor=none;shape=stencil(UzV2Ls5ILEhVNTIoLinKz04tz0wpyVA1dlE1MsrMy0gtyiwBslSNXVWNndPyi1LTi/JL81Ig/IJEkEoQKze/DGRCBUSfAUiHkUElMs8NojAnMw9JoaW5noEpsYoNDVDNNTbWM7MgXjmMj1Ux2UrJUwhkIMIOEuzIcujhDBSCxJGxKwA=);strokeColor=#000000;spacingTop=-3;spacingBottom=-3;spacingLeft=-3;spacingRight=-3;points=[];labelBackgroundColor=none;rounded=0;html=1;whiteSpace=wrap;" vertex="1" parent="1">
            <mxGeometry x="8833" y="2292" width="543" height="47" as="geometry" />
          </mxCell>
        </UserObject>
        <UserObject label="&lt;div style=&quot;font-size: 1px&quot;&gt;&lt;p style=&quot;text-align:center;margin-left:0;margin-right:0;margin-top:0px;margin-bottom:0px;text-indent:0;vertical-align:middle;direction:ltr;&quot;&gt;&lt;font style=&quot;font-size:12px;font-family:0;color:#000000;direction:ltr;letter-spacing:0px;line-height:120%;opacity:1&quot;&gt;LOOKING？&lt;/font&gt;&lt;/p&gt;&lt;/div&gt;" tags="Background" id="gA9360L1mvfKF3IkTRkT-57">
          <mxCell style="verticalAlign=middle;align=center;overflow=width;vsdxID=56;fillColor=#FFFFFF;gradientColor=none;shape=stencil(UzV2Ls5ILEhVNTIoLinKz04tz0wpyVA1dlE1MsrMy0gtyiwBslSNXVWNndPyi1LTi/JL81Ig/IJEkEoQKze/DGRCBUSfAUiHkUElhGcK4bpBVOZk5iGpNEVVikeloQHZpsK0YlWLz1QgA+HFtMycHEgIIcujBwlQCBKcxq4A);strokeColor=#000000;spacingTop=-3;spacingBottom=-3;spacingLeft=-3;spacingRight=-3;points=[];labelBackgroundColor=none;rounded=0;html=1;whiteSpace=wrap;" vertex="1" parent="1">
            <mxGeometry x="7214" y="5700" width="133" height="93" as="geometry" />
          </mxCell>
        </UserObject>
        <UserObject label="&lt;div style=&quot;font-size: 1px&quot;&gt;&lt;p style=&quot;text-align:center;margin-left:0;margin-right:0;margin-top:0px;margin-bottom:0px;text-indent:0;vertical-align:middle;direction:ltr;&quot;&gt;&lt;font style=&quot;font-size:12px;font-family:0;color:#000000;direction:ltr;letter-spacing:0px;line-height:120%;opacity:1&quot;&gt;OBSERVING？&lt;/font&gt;&lt;/p&gt;&lt;/div&gt;" tags="Background" id="gA9360L1mvfKF3IkTRkT-58">
          <mxCell style="verticalAlign=middle;align=center;overflow=width;vsdxID=57;fillColor=#FFFFFF;gradientColor=none;shape=stencil(UzV2Ls5ILEhVNTIoLinKz04tz0wpyVA1dlE1MsrMy0gtyiwBslSNXVWNndPyi1LTi/JL81Ig/IJEkEoQKze/DGRCBUSfAUiHkUElhGcK4bpBVOZk5iGpNEVVikeloQHZpsK0YlWLz1QgA+HFtMycHEgIIcujBwlQCBKcxq4A);strokeColor=#000000;spacingTop=-3;spacingBottom=-3;spacingLeft=-3;spacingRight=-3;points=[];labelBackgroundColor=none;rounded=0;html=1;whiteSpace=wrap;" vertex="1" parent="1">
            <mxGeometry x="7211" y="5951" width="139" height="99" as="geometry" />
          </mxCell>
        </UserObject>
        <UserObject label="&lt;div style=&quot;font-size: 1px&quot;&gt;&lt;p style=&quot;text-align:center;margin-left:0;margin-right:0;margin-top:0px;margin-bottom:0px;text-indent:0;vertical-align:middle;direction:ltr;&quot;&gt;&lt;font style=&quot;font-size:12px;font-family:0;color:#000000;direction:ltr;letter-spacing:0px;line-height:120%;opacity:1&quot;&gt;FOLLOWING？&lt;/font&gt;&lt;/p&gt;&lt;/div&gt;" tags="Background" id="gA9360L1mvfKF3IkTRkT-59">
          <mxCell style="verticalAlign=middle;align=center;overflow=width;vsdxID=58;fillColor=#FFFFFF;gradientColor=none;shape=stencil(UzV2Ls5ILEhVNTIoLinKz04tz0wpyVA1dlE1MsrMy0gtyiwBslSNXVWNndPyi1LTi/JL81Ig/IJEkEoQKze/DGRCBUSfAUiHkUElhGcK4bpBVOZk5iGpNEVVikeloQHZpsK0YlWLz1QgA+HFtMycHEgIIcujBwlQCBKcxq4A);strokeColor=#000000;spacingTop=-3;spacingBottom=-3;spacingLeft=-3;spacingRight=-3;points=[];labelBackgroundColor=none;rounded=0;html=1;whiteSpace=wrap;" vertex="1" parent="1">
            <mxGeometry x="7214" y="6375" width="133" height="91" as="geometry" />
          </mxCell>
        </UserObject>
        <UserObject label="&lt;div style=&quot;font-size: 1px&quot;&gt;&lt;p style=&quot;text-align:center;margin-left:0;margin-right:0;margin-top:0px;margin-bottom:0px;text-indent:0;vertical-align:middle;direction:ltr;&quot;&gt;&lt;font style=&quot;font-size:12px;font-family:0;color:#000000;direction:ltr;letter-spacing:0px;line-height:120%;opacity:1&quot;&gt;LEADING？&lt;/font&gt;&lt;/p&gt;&lt;/div&gt;" tags="Background" id="gA9360L1mvfKF3IkTRkT-60">
          <mxCell style="verticalAlign=middle;align=center;overflow=width;vsdxID=59;fillColor=#FFFFFF;gradientColor=none;shape=stencil(UzV2Ls5ILEhVNTIoLinKz04tz0wpyVA1dlE1MsrMy0gtyiwBslSNXVWNndPyi1LTi/JL81Ig/IJEkEoQKze/DGRCBUSfAUiHkUElhGcK4bpBVOZk5iGpNEVVikeloQHZpsK0YlWLz1QgA+HFtMycHEgIIcujBwlQCBKcxq4A);strokeColor=#000000;spacingTop=-3;spacingBottom=-3;spacingLeft=-3;spacingRight=-3;points=[];labelBackgroundColor=none;rounded=0;html=1;whiteSpace=wrap;" vertex="1" parent="1">
            <mxGeometry x="7220" y="6944" width="120" height="101" as="geometry" />
          </mxCell>
        </UserObject>
        <UserObject label="&lt;div style=&quot;font-size: 1px&quot;&gt;&lt;p style=&quot;text-align:center;margin-left:0;margin-right:0;margin-top:0px;margin-bottom:0px;text-indent:0;vertical-align:middle;direction:ltr;&quot;&gt;&lt;font style=&quot;font-size:12px;font-family:0;color:#000000;direction:ltr;letter-spacing:0px;line-height:120%;opacity:1&quot;&gt;开始Leader选举&lt;/font&gt;&lt;/p&gt;&lt;/div&gt;" tags="Background" id="gA9360L1mvfKF3IkTRkT-61">
          <mxCell style="verticalAlign=middle;align=center;overflow=width;vsdxID=60;fillColor=#FFFFFF;gradientColor=none;shape=stencil(lVLbDoMgDP0aXgkWjfPZuf8wESeZE4eXub+frG6CGpK99bSnnNNSwtOuyltBgHW9VjfxlEVfEX4mALKphJb9HBGeEZ6WSourVkNTIG5zwzTRXY3mhQn7mOkA9kIU0Tj4JC7IfQx5YbiBS3bhBAiBRrAQwCYsb9WysXSTmIYnR5t5hAPml17rcDyIK77SFzMhheQf+V/ia8AeZ+Pp0IG1q0O2f/E7+c30u3lccf+fz8F6LKWsa7w1u749rjmFh8mzNw==);strokeColor=#000000;spacingTop=-3;spacingBottom=-3;spacingLeft=-3;spacingRight=-3;points=[];labelBackgroundColor=none;rounded=0;html=1;whiteSpace=wrap;" vertex="1" parent="1">
            <mxGeometry x="7585" y="5711" width="159" height="70" as="geometry" />
          </mxCell>
        </UserObject>
        <UserObject label="&lt;div style=&quot;font-size: 1px&quot;&gt;&lt;p style=&quot;text-align:center;margin-left:0;margin-right:0;margin-top:0px;margin-bottom:0px;text-indent:0;vertical-align:middle;direction:ltr;&quot;&gt;&lt;font style=&quot;font-size:12px;font-family:0;color:#000000;direction:ltr;letter-spacing:0px;line-height:120%;opacity:1&quot;&gt;启动Leader选举算法&lt;/font&gt;&lt;/p&gt;&lt;/div&gt;" tags="Background" id="gA9360L1mvfKF3IkTRkT-62">
          <mxCell style="verticalAlign=middle;align=center;overflow=width;vsdxID=61;fillColor=#FFFFFF;gradientColor=none;shape=stencil(lVLRDoIwDPyavS6jkyDPiP9BwpBFZDiG4t/LLMoGZIlvvfa6u3YlPOvrohMEWG+0uoqnLE1N+IkAyLYWWpopIjwnPKuUFhethrZE3BWWaaObetgXRuxjtgPYC1FMU/gkzsi9D0VpuZFP9uEICIFCPBPAJcxvNbJ1dNOEJrGnzQLCEQtLL3XYH8QXX+izmQNlx3/kf4mvAXecladdB86udtnhxW/kV9Nv5vHFw38+BcuxVLJp8Nbc+vq4phQeJs/f);strokeColor=#000000;spacingTop=-3;spacingBottom=-3;spacingLeft=-3;spacingRight=-3;points=[];labelBackgroundColor=none;rounded=0;html=1;whiteSpace=wrap;" vertex="1" parent="1">
            <mxGeometry x="7855" y="5713" width="178" height="67" as="geometry" />
          </mxCell>
        </UserObject>
        <UserObject label="&lt;div style=&quot;font-size: 1px&quot;&gt;&lt;p style=&quot;text-align:center;margin-left:0;margin-right:0;margin-top:0px;margin-bottom:0px;text-indent:0;vertical-align:middle;direction:ltr;&quot;&gt;&lt;font style=&quot;font-size:12px;font-family:0;color:#000000;direction:ltr;letter-spacing:0px;line-height:120%;opacity:1&quot;&gt;选举出Leader&lt;br/&gt;&lt;/font&gt;&lt;font style=&quot;font-size:12px;font-family:0;color:#000000;direction:ltr;letter-spacing:0px;line-height:120%;opacity:1&quot;&gt;lookForLeader()&lt;br/&gt;&lt;/font&gt;&lt;/p&gt;&lt;/div&gt;" tags="Background" id="gA9360L1mvfKF3IkTRkT-63">
          <mxCell style="verticalAlign=middle;align=center;overflow=width;vsdxID=62;fillColor=#FFFFFF;gradientColor=none;shape=stencil(lVLRDoIwDPyavS6jQwnPiP9BwpBFZDiG4t/LLMoGZIlvvfa6u3YlPOvrohMEWG+0uoqnLE1N+IkAyLYWWpopIjwnPKuUFhethrZE3BWWaaObetgXRuxjtgPYC9GBJtEncUbufShKy418sg9HQAiUxTMBXML8ViNbRzdNaHr0tFlAOGJh6aUO+4P44gt9NhNTSP+R/yW+BtxxVp52HTi72mWHF7+RX02/mccXD//5FCzHUsmmwVtz6+vjmlJ4mDx/Aw==);strokeColor=#000000;spacingTop=-3;spacingBottom=-3;spacingLeft=-3;spacingRight=-3;points=[];labelBackgroundColor=none;rounded=0;html=1;whiteSpace=wrap;" vertex="1" parent="1">
            <mxGeometry x="8127" y="5711" width="196" height="70" as="geometry" />
          </mxCell>
        </UserObject>
        <UserObject label="&lt;div style=&quot;font-size: 1px&quot;&gt;&lt;p style=&quot;text-align:center;margin-left:0;margin-right:0;margin-top:0px;margin-bottom:0px;text-indent:0;vertical-align:middle;direction:ltr;&quot;&gt;&lt;font style=&quot;font-size:12px;font-family:0;color:#000000;direction:ltr;letter-spacing:0px;line-height:120%;opacity:1&quot;&gt;启动 Observer &lt;/font&gt;&lt;/p&gt;&lt;/div&gt;" tags="Background" id="gA9360L1mvfKF3IkTRkT-64">
          <mxCell style="verticalAlign=middle;align=center;overflow=width;vsdxID=63;fillColor=#FFFFFF;gradientColor=none;shape=stencil(lVLbDoMgDP0aXgkWjfPZuf8wESeZE4eXub+frG6CGpK99bSnnNNSwtOuyltBgHW9VjfxlEVfEX4mALKphJb9HBGeEZ6WSourVkNTIG5zwzTRXY3mhQn7mOkA9kIU0Tj4JC7IfQx5YbiBS3bhBAiBRrAQwCYsb9WysXSTmIYnR5t5hAPml17rcDyIK77SFzMhheQf+V/ia8AeZ+Pp0IG1q0O2f/E7+c30u3lccf+fz8F6LKWsa7w1u749rjmFh8mzNw==);strokeColor=#000000;spacingTop=-3;spacingBottom=-3;spacingLeft=-3;spacingRight=-3;points=[];labelBackgroundColor=none;rounded=0;html=1;whiteSpace=wrap;" vertex="1" parent="1">
            <mxGeometry x="7573" y="5965" width="159" height="70" as="geometry" />
          </mxCell>
        </UserObject>
        <UserObject label="&lt;div style=&quot;font-size: 1px&quot;&gt;&lt;p style=&quot;text-align:center;margin-left:0;margin-right:0;margin-top:0px;margin-bottom:0px;text-indent:0;vertical-align:middle;direction:ltr;&quot;&gt;&lt;font style=&quot;font-size:12px;font-family:0;color:#000000;direction:ltr;letter-spacing:0px;line-height:120%;opacity:1&quot;&gt;和 Leader 服务器建立Socket连接&lt;br/&gt;&lt;/font&gt;&lt;font style=&quot;font-size:12px;font-family:0;color:#000000;direction:ltr;letter-spacing:0px;line-height:120%;opacity:1&quot;&gt;同步数据&lt;/font&gt;&lt;/p&gt;&lt;/div&gt;" tags="Background" id="gA9360L1mvfKF3IkTRkT-65">
          <mxCell style="verticalAlign=middle;align=center;overflow=width;vsdxID=64;fillColor=#FFFFFF;gradientColor=none;shape=stencil(lVLRDoIwDPyavS6jkyDPiP9BwpBFZDiG4t/LLMoGZIlvvfa6u3YlPOvrohMEWG+0uoqnLE1N+IkAyLYWWpopIjwnPKuUFhethrZE3BWWaaObetgXRuxjtgPYC1FMU/gkzsi9D0VpuZFP9uEICIFCPBPAJcxvNbJ1dNOEJrGnzQLCEQtLL3XYH8QXX+izmQNlx3/kf4mvAXecladdB86udtnhxW/kV9Nv5vHFw38+BcuxVLJp8Nbc+vq4phQeJs/f);strokeColor=#000000;spacingTop=-3;spacingBottom=-3;spacingLeft=-3;spacingRight=-3;points=[];labelBackgroundColor=none;rounded=0;html=1;whiteSpace=wrap;" vertex="1" parent="1">
            <mxGeometry x="7850" y="5967" width="178" height="67" as="geometry" />
          </mxCell>
        </UserObject>
        <UserObject label="&lt;div style=&quot;font-size: 1px&quot;&gt;&lt;p style=&quot;text-align:center;margin-left:0;margin-right:0;margin-top:0px;margin-bottom:0px;text-indent:0;vertical-align:middle;direction:ltr;&quot;&gt;&lt;font style=&quot;font-size:12px;font-family:0;color:#000000;direction:ltr;letter-spacing:0px;line-height:120%;opacity:1&quot;&gt;从服务器读取数据并处理数据&lt;/font&gt;&lt;/p&gt;&lt;/div&gt;" tags="Background" id="gA9360L1mvfKF3IkTRkT-66">
          <mxCell style="verticalAlign=middle;align=center;overflow=width;vsdxID=65;fillColor=#FFFFFF;gradientColor=none;shape=stencil(lVLRDoIwDPyavS6jQwnPiP9BwpBFZDiG4t/LLMoGZIlvvfa6u3YlPOvrohMEWG+0uoqnLE1N+IkAyLYWWpopIjwnPKuUFhethrZE3BWWaaObetgXRuxjtgPYC9GBJtEncUbufShKy418sg9HQAiUxTMBXML8ViNbRzdNaHr0tFlAOGJh6aUO+4P44gt9NhNTSP+R/yW+BtxxVp52HTi72mWHF7+RX02/mccXD//5FCzHUsmmwVtz6+vjmlJ4mDx/Aw==);strokeColor=#000000;spacingTop=-3;spacingBottom=-3;spacingLeft=-3;spacingRight=-3;points=[];labelBackgroundColor=none;rounded=0;html=1;whiteSpace=wrap;" vertex="1" parent="1">
            <mxGeometry x="8587" y="5965" width="196" height="70" as="geometry" />
          </mxCell>
        </UserObject>
        <UserObject label="&lt;div style=&quot;font-size: 1px&quot;&gt;&lt;p style=&quot;text-align:center;margin-left:0;margin-right:0;margin-top:0px;margin-bottom:0px;text-indent:0;vertical-align:middle;direction:ltr;&quot;&gt;&lt;font style=&quot;font-size:12px;font-family:0;color:#000000;direction:ltr;letter-spacing:0px;line-height:120%;opacity:1&quot;&gt;Observer是否正在运行？&lt;br/&gt;&lt;/font&gt;&lt;font style=&quot;font-size:12px;font-family:0;color:#000000;direction:ltr;letter-spacing:0px;line-height:120%;opacity:1&quot;&gt;是否出现异常？&lt;/font&gt;&lt;/p&gt;&lt;/div&gt;" tags="Background" id="gA9360L1mvfKF3IkTRkT-67">
          <mxCell style="verticalAlign=middle;align=center;overflow=width;vsdxID=66;fillColor=#FFFFFF;gradientColor=none;shape=stencil(UzV2Ls5ILEhVNTIoLinKz04tz0wpyVA1dlE1MsrMy0gtyiwBslSNXVWNndPyi1LTi/JL81Ig/IJEkEoQKze/DGRCBUSfAUiHkUElhGcK4bpBVOZk5iGpNEVVikeloQHZpsK0YlWLz1QgA+HFtMycHEgIIcujBwlQCBKcxq4A);strokeColor=#000000;spacingTop=-3;spacingBottom=-3;spacingLeft=-3;spacingRight=-3;points=[];labelBackgroundColor=none;rounded=0;html=1;whiteSpace=wrap;" vertex="1" parent="1">
            <mxGeometry x="8277" y="5927" width="203" height="146" as="geometry" />
          </mxCell>
        </UserObject>
        <UserObject label="&lt;div style=&quot;font-size: 1px&quot;&gt;&lt;p style=&quot;text-align:center;margin-left:0;margin-right:0;margin-top:0px;margin-bottom:0px;text-indent:0;vertical-align:middle;direction:ltr;&quot;&gt;&lt;font style=&quot;font-size:12px;font-family:0;color:#000000;direction:ltr;letter-spacing:0px;line-height:120%;opacity:1&quot;&gt;启动 Follower&lt;/font&gt;&lt;/p&gt;&lt;/div&gt;" tags="Background" id="gA9360L1mvfKF3IkTRkT-68">
          <mxCell style="verticalAlign=middle;align=center;overflow=width;vsdxID=67;fillColor=#FFFFFF;gradientColor=none;shape=stencil(lVLbDoMgDP0aXgkWjfPZuf8wESeZE4eXub+frG6CGpK99bSnnNNSwtOuyltBgHW9VjfxlEVfEX4mALKphJb9HBGeEZ6WSourVkNTIG5zwzTRXY3mhQn7mOkA9kIU0Tj4JC7IfQx5YbiBS3bhBAiBRrAQwCYsb9WysXSTmIYnR5t5hAPml17rcDyIK77SFzMhheQf+V/ia8AeZ+Pp0IG1q0O2f/E7+c30u3lccf+fz8F6LKWsa7w1u749rjmFh8mzNw==);strokeColor=#000000;spacingTop=-3;spacingBottom=-3;spacingLeft=-3;spacingRight=-3;points=[];labelBackgroundColor=none;rounded=0;html=1;whiteSpace=wrap;" vertex="1" parent="1">
            <mxGeometry x="7563" y="6385" width="159" height="70" as="geometry" />
          </mxCell>
        </UserObject>
        <UserObject label="&lt;div style=&quot;font-size: 1px&quot;&gt;&lt;p style=&quot;text-align:center;margin-left:0;margin-right:0;margin-top:0px;margin-bottom:0px;text-indent:0;vertical-align:middle;direction:ltr;&quot;&gt;&lt;font style=&quot;font-size:12px;font-family:0;color:#000000;direction:ltr;letter-spacing:0px;line-height:120%;opacity:1&quot;&gt;和 Leader 服务器建立Socket连接&lt;br/&gt;&lt;/font&gt;&lt;font style=&quot;font-size:12px;font-family:0;color:#000000;direction:ltr;letter-spacing:0px;line-height:120%;opacity:1&quot;&gt;同步数据&lt;/font&gt;&lt;/p&gt;&lt;/div&gt;" tags="Background" id="gA9360L1mvfKF3IkTRkT-69">
          <mxCell style="verticalAlign=middle;align=center;overflow=width;vsdxID=68;fillColor=#FFFFFF;gradientColor=none;shape=stencil(lVLRDoIwDPyavS6jkyDPiP9BwpBFZDiG4t/LLMoGZIlvvfa6u3YlPOvrohMEWG+0uoqnLE1N+IkAyLYWWpopIjwnPKuUFhethrZE3BWWaaObetgXRuxjtgPYC1FMU/gkzsi9D0VpuZFP9uEICIFCPBPAJcxvNbJ1dNOEJrGnzQLCEQtLL3XYH8QXX+izmQNlx3/kf4mvAXecladdB86udtnhxW/kV9Nv5vHFw38+BcuxVLJp8Nbc+vq4phQeJs/f);strokeColor=#000000;spacingTop=-3;spacingBottom=-3;spacingLeft=-3;spacingRight=-3;points=[];labelBackgroundColor=none;rounded=0;html=1;whiteSpace=wrap;" vertex="1" parent="1">
            <mxGeometry x="7840" y="6387" width="178" height="67" as="geometry" />
          </mxCell>
        </UserObject>
        <UserObject label="&lt;div style=&quot;font-size: 1px&quot;&gt;&lt;p style=&quot;text-align:center;margin-left:0;margin-right:0;margin-top:0px;margin-bottom:0px;text-indent:0;vertical-align:middle;direction:ltr;&quot;&gt;&lt;font style=&quot;font-size:12px;font-family:0;color:#000000;direction:ltr;letter-spacing:0px;line-height:120%;opacity:1&quot;&gt;从服务器读取数据并处理数据&lt;/font&gt;&lt;/p&gt;&lt;/div&gt;" tags="Background" id="gA9360L1mvfKF3IkTRkT-70">
          <mxCell style="verticalAlign=middle;align=center;overflow=width;vsdxID=69;fillColor=#FFFFFF;gradientColor=none;shape=stencil(lVLRDoIwDPyavS6jQwnPiP9BwpBFZDiG4t/LLMoGZIlvvfa6u3YlPOvrohMEWG+0uoqnLE1N+IkAyLYWWpopIjwnPKuUFhethrZE3BWWaaObetgXRuxjtgPYC9GBJtEncUbufShKy418sg9HQAiUxTMBXML8ViNbRzdNaHr0tFlAOGJh6aUO+4P44gt9NhNTSP+R/yW+BtxxVp52HTi72mWHF7+RX02/mccXD//5FCzHUsmmwVtz6+vjmlJ4mDx/Aw==);strokeColor=#000000;spacingTop=-3;spacingBottom=-3;spacingLeft=-3;spacingRight=-3;points=[];labelBackgroundColor=none;rounded=0;html=1;whiteSpace=wrap;" vertex="1" parent="1">
            <mxGeometry x="8271" y="6608" width="196" height="70" as="geometry" />
          </mxCell>
        </UserObject>
        <UserObject label="&lt;div style=&quot;font-size: 1px&quot;&gt;&lt;p style=&quot;text-align:center;margin-left:0;margin-right:0;margin-top:0px;margin-bottom:0px;text-indent:0;vertical-align:middle;direction:ltr;&quot;&gt;&lt;font style=&quot;font-size:12px;font-family:0;color:#000000;direction:ltr;letter-spacing:0px;line-height:120%;opacity:1&quot;&gt;Follower 是否正在运行？&lt;br/&gt;&lt;/font&gt;&lt;font style=&quot;font-size:12px;font-family:0;color:#000000;direction:ltr;letter-spacing:0px;line-height:120%;opacity:1&quot;&gt;是否出现异常？&lt;/font&gt;&lt;/p&gt;&lt;/div&gt;" tags="Background" id="gA9360L1mvfKF3IkTRkT-71">
          <mxCell style="verticalAlign=middle;align=center;overflow=width;vsdxID=70;fillColor=#FFFFFF;gradientColor=none;shape=stencil(UzV2Ls5ILEhVNTIoLinKz04tz0wpyVA1dlE1MsrMy0gtyiwBslSNXVWNndPyi1LTi/JL81Ig/IJEkEoQKze/DGRCBUSfAUiHkUElhGcK4bpBVOZk5iGpNEVVikeloQHZpsK0YlWLz1QgA+HFtMycHEgIIcujBwlQCBKcxq4A);strokeColor=#000000;spacingTop=-3;spacingBottom=-3;spacingLeft=-3;spacingRight=-3;points=[];labelBackgroundColor=none;rounded=0;html=1;whiteSpace=wrap;" vertex="1" parent="1">
            <mxGeometry x="8267" y="6347" width="203" height="146" as="geometry" />
          </mxCell>
        </UserObject>
        <UserObject label="&lt;div style=&quot;font-size: 1px&quot;&gt;&lt;p style=&quot;text-align:center;margin-left:0;margin-right:0;margin-top:0px;margin-bottom:0px;text-indent:0;vertical-align:middle;direction:ltr;&quot;&gt;&lt;font style=&quot;font-size:12px;font-family:0;color:#000000;direction:ltr;letter-spacing:0px;line-height:120%;opacity:1&quot;&gt;启动Leader&lt;/font&gt;&lt;/p&gt;&lt;/div&gt;" tags="Background" id="gA9360L1mvfKF3IkTRkT-72">
          <mxCell style="verticalAlign=middle;align=center;overflow=width;vsdxID=71;fillColor=#FFFFFF;gradientColor=none;shape=stencil(lVLRDoIwDPyavS6jQwnPiP9BwpBFZDiG4t/LLMoGZIlvvfa6u3YlPOvrohMEWG+0uoqnLE1N+IkAyLYWWpopIjwnPKuUFhethrZE3BWWaaObetgXRuxjtgPYC9GBJtEncUbufShKy418sg9HQAg0Pc4EcAnzW41sHd00oSz2tFlAOGJh6aUO+4P44gt9NhNTSP+R/yW+BtxxVp52HTi72mWHF7+RX02/mccXD//5FCzHUsmmwVtz6+vjmlJ4mDx/Aw==);strokeColor=#000000;spacingTop=-3;spacingBottom=-3;spacingLeft=-3;spacingRight=-3;points=[];labelBackgroundColor=none;rounded=0;html=1;whiteSpace=wrap;" vertex="1" parent="1">
            <mxGeometry x="7548" y="6960" width="135" height="70" as="geometry" />
          </mxCell>
        </UserObject>
        <UserObject label="&lt;div style=&quot;font-size: 1px&quot;&gt;&lt;p style=&quot;text-align:center;margin-left:0;margin-right:0;margin-top:0px;margin-bottom:0px;text-indent:0;vertical-align:middle;direction:ltr;&quot;&gt;&lt;font style=&quot;font-size:12px;font-family:0;color:#000000;direction:ltr;letter-spacing:0px;line-height:120%;opacity:1&quot;&gt;执行Leader的任务&lt;/font&gt;&lt;/p&gt;&lt;/div&gt;" tags="Background" id="gA9360L1mvfKF3IkTRkT-73">
          <mxCell style="verticalAlign=middle;align=center;overflow=width;vsdxID=72;fillColor=#FFFFFF;gradientColor=none;shape=stencil(lVLRDoIwDPyavS6jQwnPiP9BwpBFZDiG4t/LLMoGZIlvvfa6u3YlPOvrohMEWG+0uoqnLE1N+IkAyLYWWpopIjwnPKuUFhethrZE3BWWaaObetgXRuxjtgPYC9GBJtEncUbufShKy418sg9HQAiUxTMBXML8ViNbRzdNaHr0tFlAOGJh6aUO+4P44gt9NhNTSP+R/yW+BtxxVp52HTi72mWHF7+RX02/mccXD//5FCzHUsmmwVtz6+vjmlJ4mDx/Aw==);strokeColor=#000000;spacingTop=-3;spacingBottom=-3;spacingLeft=-3;spacingRight=-3;points=[];labelBackgroundColor=none;rounded=0;html=1;whiteSpace=wrap;" vertex="1" parent="1">
            <mxGeometry x="7784" y="6960" width="196" height="70" as="geometry" />
          </mxCell>
        </UserObject>
        <UserObject label="" tags="Background" id="gA9360L1mvfKF3IkTRkT-74">
          <mxCell style="vsdxID=73;fillColor=#FFFFFF;gradientColor=none;shape=stencil(UzV2Ls5ILEhVNTIoLinKz04tz0wpyVA1dlE1MsrMy0gtyiwBslSNXVWNndPyi1LTi/JL81Ig/IJEkEoQKze/DGRCBUSfAUiHkUElhGcK4bpBVOZk5iGpNEVVikeloQHZpsK0YlWLz1QgA+HFtMycHEgIIcujBwlQCBKcxq4A);strokeColor=#000000;spacingTop=-3;spacingBottom=-3;spacingLeft=-3;spacingRight=-3;points=[];labelBackgroundColor=none;rounded=0;html=1;whiteSpace=wrap;" vertex="1" parent="1">
            <mxGeometry x="8323" y="6955" width="120" height="80" as="geometry" />
          </mxCell>
        </UserObject>
        <UserObject label="" tags="Background" id="gA9360L1mvfKF3IkTRkT-75">
          <mxCell style="vsdxID=74;edgeStyle=none;startArrow=none;endArrow=block;startSize=5;endSize=5;strokeWidth=2;spacingTop=0;spacingBottom=0;spacingLeft=0;spacingRight=0;verticalAlign=middle;html=1;labelBackgroundColor=#ffffff;rounded=0;exitX=1;exitY=0.5;exitDx=0;exitDy=0;exitPerimeter=0;entryX=0;entryY=0.5072463768115942;entryDx=0;entryDy=0;entryPerimeter=0;" edge="1" parent="1" source="gA9360L1mvfKF3IkTRkT-13" target="gA9360L1mvfKF3IkTRkT-15">
            <mxGeometry relative="1" as="geometry">
              <Array as="points" />
            </mxGeometry>
          </mxCell>
        </UserObject>
        <UserObject label="&lt;div style=&quot;font-size: 1px&quot;&gt;&lt;p style=&quot;text-align:center;margin-left:0;margin-right:0;margin-top:0px;margin-bottom:0px;text-indent:0;vertical-align:middle;direction:ltr;&quot;&gt;&lt;font style=&quot;font-size:12px;font-family:0;color:#000000;direction:ltr;letter-spacing:0px;line-height:120%;opacity:1&quot;&gt;是&lt;/font&gt;&lt;/p&gt;&lt;/div&gt;" tags="Background" id="gA9360L1mvfKF3IkTRkT-76">
          <mxCell style="vsdxID=75;edgeStyle=none;startArrow=none;endArrow=block;startSize=5;endSize=5;strokeWidth=2;spacingTop=0;spacingBottom=0;spacingLeft=0;spacingRight=0;verticalAlign=middle;html=1;labelBackgroundColor=#ffffff;rounded=0;align=center;exitX=1;exitY=0.4946236559139785;exitDx=0;exitDy=0;exitPerimeter=0;entryX=0;entryY=0.5;entryDx=0;entryDy=0;entryPerimeter=0;" edge="1" parent="1" source="gA9360L1mvfKF3IkTRkT-57" target="gA9360L1mvfKF3IkTRkT-61">
            <mxGeometry relative="1" as="geometry">
              <mxPoint x="-1" y="-1" as="offset" />
              <Array as="points">
                <mxPoint x="7465.85" y="5746" />
                <mxPoint x="7465.85" y="5746" />
              </Array>
            </mxGeometry>
          </mxCell>
        </UserObject>
        <UserObject label="" tags="Background" id="gA9360L1mvfKF3IkTRkT-77">
          <mxCell style="vsdxID=76;edgeStyle=none;startArrow=none;endArrow=block;startSize=5;endSize=5;strokeWidth=2;spacingTop=0;spacingBottom=0;spacingLeft=0;spacingRight=0;verticalAlign=middle;html=1;labelBackgroundColor=#ffffff;rounded=0;exitX=0.49640287769784175;exitY=1;exitDx=0;exitDy=0;exitPerimeter=0;entryX=0.49624060150375937;entryY=0;entryDx=0;entryDy=0;entryPerimeter=0;" edge="1" parent="1" source="gA9360L1mvfKF3IkTRkT-58" target="gA9360L1mvfKF3IkTRkT-59">
            <mxGeometry relative="1" as="geometry">
              <mxPoint y="264" as="offset" />
              <Array as="points">
                <mxPoint x="7280" y="6212.33" />
                <mxPoint x="7280" y="6212.33" />
              </Array>
            </mxGeometry>
          </mxCell>
        </UserObject>
        <UserObject label="" tags="Background" id="gA9360L1mvfKF3IkTRkT-78">
          <mxCell style="vsdxID=77;edgeStyle=none;startArrow=none;endArrow=block;startSize=5;endSize=5;strokeWidth=2;spacingTop=0;spacingBottom=0;spacingLeft=0;spacingRight=0;verticalAlign=middle;html=1;labelBackgroundColor=#ffffff;rounded=0;exitX=0.5016835016835017;exitY=1;exitDx=0;exitDy=0;exitPerimeter=0;entryX=0.5;entryY=0;entryDx=0;entryDy=0;entryPerimeter=0;" edge="1" parent="1" source="gA9360L1mvfKF3IkTRkT-14" target="gA9360L1mvfKF3IkTRkT-13">
            <mxGeometry relative="1" as="geometry">
              <Array as="points" />
            </mxGeometry>
          </mxCell>
        </UserObject>
        <UserObject label="" tags="Background" id="gA9360L1mvfKF3IkTRkT-79">
          <mxCell style="vsdxID=78;edgeStyle=none;startArrow=none;endArrow=block;startSize=5;endSize=5;strokeWidth=2;spacingTop=0;spacingBottom=0;spacingLeft=0;spacingRight=0;verticalAlign=middle;html=1;labelBackgroundColor=#ffffff;rounded=0;exitX=1;exitY=0.4953271028037383;exitDx=0;exitDy=0;exitPerimeter=0;entryX=0;entryY=0.49504950495049505;entryDx=0;entryDy=0;entryPerimeter=0;" edge="1" parent="1" source="gA9360L1mvfKF3IkTRkT-28" target="gA9360L1mvfKF3IkTRkT-33">
            <mxGeometry relative="1" as="geometry">
              <mxPoint x="-112" y="102" as="offset" />
              <Array as="points">
                <mxPoint x="8042.58" y="2478" />
                <mxPoint x="8042.58" y="2478" />
              </Array>
            </mxGeometry>
          </mxCell>
        </UserObject>
        <UserObject label="" tags="Background" id="gA9360L1mvfKF3IkTRkT-80">
          <mxCell style="vsdxID=79;edgeStyle=none;startArrow=none;endArrow=block;startSize=5;endSize=5;strokeWidth=2;spacingTop=0;spacingBottom=0;spacingLeft=0;spacingRight=0;verticalAlign=middle;html=1;labelBackgroundColor=#ffffff;rounded=0;exitX=1;exitY=0.5;exitDx=0;exitDy=0;exitPerimeter=0;entryX=0;entryY=0.5;entryDx=0;entryDy=0;entryPerimeter=0;" edge="1" parent="1" source="gA9360L1mvfKF3IkTRkT-19" target="gA9360L1mvfKF3IkTRkT-20">
            <mxGeometry relative="1" as="geometry">
              <mxPoint x="-119" y="-2" as="offset" />
              <Array as="points">
                <mxPoint x="7518.11" y="4008" />
                <mxPoint x="7518.11" y="3781.33" />
              </Array>
            </mxGeometry>
          </mxCell>
        </UserObject>
        <UserObject label="&lt;div style=&quot;font-size: 1px&quot;&gt;&lt;p style=&quot;text-align:center;margin-left:0;margin-right:0;margin-top:0px;margin-bottom:0px;text-indent:0;vertical-align:middle;direction:ltr;&quot;&gt;&lt;font style=&quot;font-size:12px;font-family:0;color:#000000;direction:ltr;letter-spacing:0px;line-height:120%;opacity:1&quot;&gt;线程&lt;/font&gt;&lt;/p&gt;&lt;/div&gt;" tags="Background" id="gA9360L1mvfKF3IkTRkT-81">
          <mxCell style="vsdxID=80;edgeStyle=none;startArrow=none;endArrow=block;startSize=5;endSize=5;strokeWidth=2;spacingTop=0;spacingBottom=0;spacingLeft=0;spacingRight=0;verticalAlign=middle;html=1;labelBackgroundColor=#ffffff;rounded=0;align=center;exitX=1;exitY=0.5;exitDx=0;exitDy=0;exitPerimeter=0;entryX=0;entryY=0.506578947368421;entryDx=0;entryDy=0;entryPerimeter=0;" edge="1" parent="1" source="gA9360L1mvfKF3IkTRkT-34" target="gA9360L1mvfKF3IkTRkT-36">
            <mxGeometry relative="1" as="geometry">
              <mxPoint as="offset" />
              <Array as="points">
                <mxPoint x="8114.5" y="4005" />
                <mxPoint x="8114.5" y="4106.71" />
              </Array>
            </mxGeometry>
          </mxCell>
        </UserObject>
        <UserObject label="" tags="Background" id="gA9360L1mvfKF3IkTRkT-82">
          <mxCell style="vsdxID=81;edgeStyle=none;startArrow=none;endArrow=block;startSize=5;endSize=5;strokeWidth=2;spacingTop=0;spacingBottom=0;spacingLeft=0;spacingRight=0;verticalAlign=middle;html=1;labelBackgroundColor=#ffffff;rounded=0;exitX=0.5;exitY=1.0108695652173914;exitDx=0;exitDy=0;exitPerimeter=0;entryX=0.5;entryY=0;entryDx=0;entryDy=0;entryPerimeter=0;" edge="1" parent="1" source="gA9360L1mvfKF3IkTRkT-9" target="gA9360L1mvfKF3IkTRkT-12">
            <mxGeometry relative="1" as="geometry">
              <mxPoint y="254" as="offset" />
              <Array as="points">
                <mxPoint x="5145" y="2859.54" />
                <mxPoint x="5145" y="2859.54" />
              </Array>
            </mxGeometry>
          </mxCell>
        </UserObject>
        <UserObject label="" tags="Background" id="gA9360L1mvfKF3IkTRkT-83">
          <mxCell style="vsdxID=82;edgeStyle=none;startArrow=none;endArrow=block;startSize=5;endSize=5;strokeWidth=2;spacingTop=0;spacingBottom=0;spacingLeft=0;spacingRight=0;verticalAlign=middle;html=1;labelBackgroundColor=#ffffff;rounded=0;exitX=0.5;exitY=1.0108695652173914;exitDx=0;exitDy=0;exitPerimeter=0;entryX=0.5016835016835017;entryY=0;entryDx=0;entryDy=0;entryPerimeter=0;" edge="1" parent="1" source="gA9360L1mvfKF3IkTRkT-12" target="gA9360L1mvfKF3IkTRkT-14">
            <mxGeometry relative="1" as="geometry">
              <Array as="points" />
            </mxGeometry>
          </mxCell>
        </UserObject>
        <UserObject label="" tags="Background" id="gA9360L1mvfKF3IkTRkT-84">
          <mxCell style="vsdxID=83;edgeStyle=none;startArrow=none;endArrow=block;startSize=5;endSize=5;strokeWidth=2;spacingTop=0;spacingBottom=0;spacingLeft=0;spacingRight=0;verticalAlign=middle;html=1;labelBackgroundColor=#ffffff;rounded=0;exitX=1;exitY=0.4925373134328358;exitDx=0;exitDy=0;exitPerimeter=0;entryX=0;entryY=0.5;entryDx=0;entryDy=0;entryPerimeter=0;" edge="1" parent="1" source="gA9360L1mvfKF3IkTRkT-65" target="gA9360L1mvfKF3IkTRkT-67">
            <mxGeometry relative="1" as="geometry">
              <mxPoint x="-125" y="102" as="offset" />
              <Array as="points">
                <mxPoint x="8152.67" y="6000" />
                <mxPoint x="8152.67" y="6000" />
              </Array>
            </mxGeometry>
          </mxCell>
        </UserObject>
        <UserObject label="" tags="Background" id="gA9360L1mvfKF3IkTRkT-85">
          <mxCell style="vsdxID=84;edgeStyle=none;startArrow=none;endArrow=block;startSize=5;endSize=5;strokeWidth=2;spacingTop=0;spacingBottom=0;spacingLeft=0;spacingRight=0;verticalAlign=middle;html=1;labelBackgroundColor=#ffffff;rounded=0;exitX=0.5;exitY=1;exitDx=0;exitDy=0;exitPerimeter=0;entryX=1;entryY=0.5;entryDx=0;entryDy=0;entryPerimeter=0;" edge="1" parent="1" source="gA9360L1mvfKF3IkTRkT-30" target="gA9360L1mvfKF3IkTRkT-24">
            <mxGeometry relative="1" as="geometry">
              <mxPoint y="234" as="offset" />
              <Array as="points">
                <mxPoint x="8127" y="3429.17" />
              </Array>
            </mxGeometry>
          </mxCell>
        </UserObject>
        <UserObject label="" tags="Background" id="gA9360L1mvfKF3IkTRkT-86">
          <mxCell style="vsdxID=85;edgeStyle=none;startArrow=none;endArrow=block;startSize=5;endSize=5;strokeWidth=2;spacingTop=0;spacingBottom=0;spacingLeft=0;spacingRight=0;verticalAlign=middle;html=1;labelBackgroundColor=#ffffff;rounded=0;exitX=0;exitY=0.49333333333333335;exitDx=0;exitDy=0;exitPerimeter=0;entryX=1.0042194092827004;entryY=0.4157303370786517;entryDx=0;entryDy=0;entryPerimeter=0;" edge="1" parent="1" source="gA9360L1mvfKF3IkTRkT-37" target="gA9360L1mvfKF3IkTRkT-38">
            <mxGeometry relative="1" as="geometry">
              <mxPoint x="215" y="101" as="offset" />
              <Array as="points">
                <mxPoint x="6946.42" y="4953" />
                <mxPoint x="6946.42" y="4952.83" />
              </Array>
            </mxGeometry>
          </mxCell>
        </UserObject>
        <UserObject label="" tags="Background" id="gA9360L1mvfKF3IkTRkT-87">
          <mxCell style="vsdxID=86;edgeStyle=none;startArrow=none;endArrow=block;startSize=5;endSize=5;strokeWidth=2;spacingTop=0;spacingBottom=0;spacingLeft=0;spacingRight=0;verticalAlign=middle;html=1;labelBackgroundColor=#ffffff;rounded=0;exitX=0.5;exitY=1;exitDx=0;exitDy=0;exitPerimeter=0;entryX=0.5;entryY=0;entryDx=0;entryDy=0;entryPerimeter=0;" edge="1" parent="1" source="gA9360L1mvfKF3IkTRkT-8" target="gA9360L1mvfKF3IkTRkT-9">
            <mxGeometry relative="1" as="geometry">
              <mxPoint y="194" as="offset" />
              <Array as="points">
                <mxPoint x="5145" y="2520.42" />
                <mxPoint x="5145" y="2520.42" />
              </Array>
            </mxGeometry>
          </mxCell>
        </UserObject>
        <UserObject label="" tags="Background" id="gA9360L1mvfKF3IkTRkT-88">
          <mxCell style="vsdxID=87;edgeStyle=none;startArrow=none;endArrow=block;startSize=5;endSize=5;strokeWidth=2;spacingTop=0;spacingBottom=0;spacingLeft=0;spacingRight=0;verticalAlign=middle;html=1;labelBackgroundColor=#ffffff;rounded=0;exitX=0.5;exitY=0;exitDx=0;exitDy=0;exitPerimeter=0;entryX=0.5;entryY=1;entryDx=0;entryDy=0;entryPerimeter=0;" edge="1" parent="1" source="gA9360L1mvfKF3IkTRkT-26" target="gA9360L1mvfKF3IkTRkT-29">
            <mxGeometry relative="1" as="geometry">
              <mxPoint y="51" as="offset" />
              <Array as="points">
                <mxPoint x="7847" y="3011.17" />
                <mxPoint x="7847" y="3011.17" />
              </Array>
            </mxGeometry>
          </mxCell>
        </UserObject>
        <UserObject label="" tags="Background" id="gA9360L1mvfKF3IkTRkT-89">
          <mxCell style="vsdxID=88;edgeStyle=none;startArrow=none;endArrow=block;startSize=5;endSize=5;strokeWidth=2;spacingTop=0;spacingBottom=0;spacingLeft=0;spacingRight=0;verticalAlign=middle;html=1;labelBackgroundColor=#ffffff;rounded=0;exitX=0.5;exitY=1;exitDx=0;exitDy=0;exitPerimeter=0;entryX=1;entryY=0.5;entryDx=0;entryDy=0;entryPerimeter=0;" edge="1" parent="1" source="gA9360L1mvfKF3IkTRkT-33" target="gA9360L1mvfKF3IkTRkT-24">
            <mxGeometry relative="1" as="geometry">
              <mxPoint y="349" as="offset" />
              <Array as="points">
                <mxPoint x="8312" y="3429.29" />
              </Array>
            </mxGeometry>
          </mxCell>
        </UserObject>
        <UserObject label="&lt;div style=&quot;font-size: 1px&quot;&gt;&lt;p style=&quot;text-align:center;margin-left:0;margin-right:0;margin-top:0px;margin-bottom:0px;text-indent:0;vertical-align:middle;direction:ltr;&quot;&gt;&lt;font style=&quot;font-size:12px;font-family:0;color:#000000;direction:ltr;letter-spacing:0px;line-height:120%;opacity:1&quot;&gt;否&lt;/font&gt;&lt;/p&gt;&lt;/div&gt;" tags="Background" id="gA9360L1mvfKF3IkTRkT-90">
          <mxCell style="vsdxID=89;edgeStyle=none;startArrow=none;endArrow=block;startSize=5;endSize=5;strokeWidth=2;spacingTop=0;spacingBottom=0;spacingLeft=0;spacingRight=0;verticalAlign=middle;html=1;labelBackgroundColor=#ffffff;rounded=0;align=center;exitX=0.5024630541871922;exitY=1.0068493150684932;exitDx=0;exitDy=0;exitPerimeter=0;entryX=0.5;entryY=0;entryDx=0;entryDy=0;entryPerimeter=0;" edge="1" parent="1" source="gA9360L1mvfKF3IkTRkT-71" target="gA9360L1mvfKF3IkTRkT-70">
            <mxGeometry relative="1" as="geometry">
              <mxPoint as="offset" />
              <Array as="points">
                <mxPoint x="8369" y="6551.38" />
                <mxPoint x="8369" y="6551.38" />
              </Array>
            </mxGeometry>
          </mxCell>
        </UserObject>
        <UserObject label="&lt;div style=&quot;font-size: 1px&quot;&gt;&lt;p style=&quot;text-align:center;margin-left:0;margin-right:0;margin-top:0px;margin-bottom:0px;text-indent:0;vertical-align:middle;direction:ltr;&quot;&gt;&lt;font style=&quot;font-size:12px;font-family:0;color:#000000;direction:ltr;letter-spacing:0px;line-height:120%;opacity:1&quot;&gt;生成&lt;/font&gt;&lt;/p&gt;&lt;/div&gt;" tags="Background" id="gA9360L1mvfKF3IkTRkT-91">
          <mxCell style="vsdxID=90;edgeStyle=none;startArrow=none;endArrow=block;startSize=5;endSize=5;strokeWidth=2;spacingTop=0;spacingBottom=0;spacingLeft=0;spacingRight=0;verticalAlign=middle;html=1;labelBackgroundColor=#ffffff;rounded=0;align=center;exitX=1;exitY=0.5;exitDx=0;exitDy=0;exitPerimeter=0;entryX=0;entryY=0.5;entryDx=0;entryDy=0;entryPerimeter=0;" edge="1" parent="1" source="gA9360L1mvfKF3IkTRkT-3" target="gA9360L1mvfKF3IkTRkT-5">
            <mxGeometry relative="1" as="geometry">
              <mxPoint as="offset" />
              <Array as="points">
                <mxPoint x="4786" y="1838" />
                <mxPoint x="4786" y="1737" />
              </Array>
            </mxGeometry>
          </mxCell>
        </UserObject>
        <UserObject label="" tags="Background" id="gA9360L1mvfKF3IkTRkT-92">
          <mxCell style="vsdxID=91;edgeStyle=none;startArrow=none;endArrow=block;startSize=5;endSize=5;strokeWidth=2;spacingTop=0;spacingBottom=0;spacingLeft=0;spacingRight=0;verticalAlign=middle;html=1;labelBackgroundColor=#ffffff;rounded=0;exitX=0.4972972972972973;exitY=1;exitDx=0;exitDy=0;exitPerimeter=0;entryX=0.5;entryY=0;entryDx=0;entryDy=0;entryPerimeter=0;" edge="1" parent="1" source="gA9360L1mvfKF3IkTRkT-39" target="gA9360L1mvfKF3IkTRkT-40">
            <mxGeometry relative="1" as="geometry">
              <mxPoint y="134" as="offset" />
              <Array as="points">
                <mxPoint x="7280" y="5284.67" />
                <mxPoint x="7280" y="5284.67" />
              </Array>
            </mxGeometry>
          </mxCell>
        </UserObject>
        <UserObject label="&lt;div style=&quot;font-size: 1px&quot;&gt;&lt;p style=&quot;text-align:center;margin-left:0;margin-right:0;margin-top:0px;margin-bottom:0px;text-indent:0;vertical-align:middle;direction:ltr;&quot;&gt;&lt;font style=&quot;font-size:12px;font-family:0;color:#000000;direction:ltr;letter-spacing:0px;line-height:120%;opacity:1&quot;&gt;线程&lt;/font&gt;&lt;/p&gt;&lt;/div&gt;" tags="Background" id="gA9360L1mvfKF3IkTRkT-93">
          <mxCell style="vsdxID=92;edgeStyle=none;startArrow=none;endArrow=block;startSize=5;endSize=5;strokeWidth=2;spacingTop=0;spacingBottom=0;spacingLeft=0;spacingRight=0;verticalAlign=middle;html=1;labelBackgroundColor=#ffffff;rounded=0;align=center;exitX=0.4978902953586498;exitY=1;exitDx=0;exitDy=0;exitPerimeter=0;entryX=0.4972972972972973;entryY=0;entryDx=0;entryDy=0;entryPerimeter=0;" edge="1" parent="1" source="gA9360L1mvfKF3IkTRkT-37" target="gA9360L1mvfKF3IkTRkT-39">
            <mxGeometry relative="1" as="geometry">
              <mxPoint as="offset" />
              <Array as="points">
                <mxPoint x="7280" y="5033" />
                <mxPoint x="7280" y="5033" />
              </Array>
            </mxGeometry>
          </mxCell>
        </UserObject>
        <UserObject label="" tags="Background" id="gA9360L1mvfKF3IkTRkT-94">
          <mxCell style="vsdxID=93;edgeStyle=none;startArrow=none;endArrow=block;startSize=5;endSize=5;strokeWidth=2;spacingTop=0;spacingBottom=0;spacingLeft=0;spacingRight=0;verticalAlign=middle;html=1;labelBackgroundColor=#ffffff;rounded=0;exitX=1;exitY=0.5;exitDx=0;exitDy=0;exitPerimeter=0;entryX=0;entryY=0.5;entryDx=0;entryDy=0;entryPerimeter=0;" edge="1" parent="1" source="gA9360L1mvfKF3IkTRkT-73" target="gA9360L1mvfKF3IkTRkT-74">
            <mxGeometry relative="1" as="geometry">
              <mxPoint x="-171" y="102" as="offset" />
              <Array as="points">
                <mxPoint x="8151.33" y="6995" />
                <mxPoint x="8151.33" y="6995" />
              </Array>
            </mxGeometry>
          </mxCell>
        </UserObject>
        <UserObject label="" tags="Background" id="gA9360L1mvfKF3IkTRkT-95">
          <mxCell style="vsdxID=94;edgeStyle=none;startArrow=none;endArrow=block;startSize=5;endSize=5;strokeWidth=2;spacingTop=0;spacingBottom=0;spacingLeft=0;spacingRight=0;verticalAlign=middle;html=1;labelBackgroundColor=#ffffff;rounded=0;exitX=1;exitY=0.5;exitDx=0;exitDy=0;exitPerimeter=0;entryX=0;entryY=0.4925373134328358;entryDx=0;entryDy=0;entryPerimeter=0;" edge="1" parent="1" source="gA9360L1mvfKF3IkTRkT-61" target="gA9360L1mvfKF3IkTRkT-62">
            <mxGeometry relative="1" as="geometry">
              <mxPoint x="-56" y="102" as="offset" />
              <Array as="points">
                <mxPoint x="7799.5" y="5746" />
                <mxPoint x="7799.5" y="5746" />
              </Array>
            </mxGeometry>
          </mxCell>
        </UserObject>
        <UserObject label="&lt;div style=&quot;font-size: 1px&quot;&gt;&lt;p style=&quot;text-align:center;margin-left:0;margin-right:0;margin-top:0px;margin-bottom:0px;text-indent:0;vertical-align:middle;direction:ltr;&quot;&gt;&lt;font style=&quot;font-size:12px;font-family:0;color:#000000;direction:ltr;letter-spacing:0px;line-height:120%;opacity:1&quot;&gt;线程&lt;/font&gt;&lt;/p&gt;&lt;/div&gt;" tags="Background" id="gA9360L1mvfKF3IkTRkT-96">
          <mxCell style="vsdxID=95;edgeStyle=none;startArrow=none;endArrow=block;startSize=5;endSize=5;strokeWidth=2;spacingTop=0;spacingBottom=0;spacingLeft=0;spacingRight=0;verticalAlign=middle;html=1;labelBackgroundColor=#ffffff;rounded=0;align=center;exitX=0.39;exitY=0;exitDx=0;exitDy=0;exitPerimeter=0;entryX=0.5;entryY=1;entryDx=0;entryDy=0;entryPerimeter=0;" edge="1" parent="1" source="gA9360L1mvfKF3IkTRkT-30" target="gA9360L1mvfKF3IkTRkT-27">
            <mxGeometry relative="1" as="geometry">
              <mxPoint y="-1" as="offset" />
              <Array as="points">
                <mxPoint x="8116" y="2834.73" />
                <mxPoint x="7847" y="2834.73" />
              </Array>
            </mxGeometry>
          </mxCell>
        </UserObject>
        <UserObject label="" tags="Background" id="gA9360L1mvfKF3IkTRkT-97">
          <mxCell style="vsdxID=96;edgeStyle=none;startArrow=none;endArrow=block;startSize=5;endSize=5;strokeWidth=2;spacingTop=0;spacingBottom=0;spacingLeft=0;spacingRight=0;verticalAlign=middle;html=1;labelBackgroundColor=#ffffff;rounded=0;exitX=1;exitY=0.5;exitDx=0;exitDy=0;exitPerimeter=0;entryX=0;entryY=0.4925373134328358;entryDx=0;entryDy=0;entryPerimeter=0;" edge="1" parent="1" source="gA9360L1mvfKF3IkTRkT-64" target="gA9360L1mvfKF3IkTRkT-65">
            <mxGeometry relative="1" as="geometry">
              <mxPoint x="-59" y="102" as="offset" />
              <Array as="points">
                <mxPoint x="7791" y="6000" />
                <mxPoint x="7791" y="6000" />
              </Array>
            </mxGeometry>
          </mxCell>
        </UserObject>
        <UserObject label="&lt;div style=&quot;font-size: 1px&quot;&gt;&lt;p style=&quot;text-align:center;margin-left:0;margin-right:0;margin-top:0px;margin-bottom:0px;text-indent:0;vertical-align:middle;direction:ltr;&quot;&gt;&lt;font style=&quot;font-size:12px;font-family:0;color:#000000;direction:ltr;letter-spacing:0px;line-height:120%;opacity:1&quot;&gt;否&lt;/font&gt;&lt;/p&gt;&lt;/div&gt;" tags="Background" id="gA9360L1mvfKF3IkTRkT-98">
          <mxCell style="vsdxID=97;edgeStyle=none;startArrow=none;endArrow=block;startSize=5;endSize=5;strokeWidth=2;spacingTop=0;spacingBottom=0;spacingLeft=0;spacingRight=0;verticalAlign=middle;html=1;labelBackgroundColor=#ffffff;rounded=0;align=center;exitX=1;exitY=0.5;exitDx=0;exitDy=0;exitPerimeter=0;entryX=0;entryY=0.49504950495049505;entryDx=0;entryDy=0;entryPerimeter=0;" edge="1" parent="1" source="gA9360L1mvfKF3IkTRkT-27" target="gA9360L1mvfKF3IkTRkT-33">
            <mxGeometry relative="1" as="geometry">
              <mxPoint as="offset" />
              <Array as="points">
                <mxPoint x="8053.83" y="2714" />
                <mxPoint x="8053.83" y="2478.5" />
              </Array>
            </mxGeometry>
          </mxCell>
        </UserObject>
        <UserObject label="" tags="Background" id="gA9360L1mvfKF3IkTRkT-99">
          <mxCell style="vsdxID=98;edgeStyle=none;startArrow=none;endArrow=block;startSize=5;endSize=5;strokeWidth=2;spacingTop=0;spacingBottom=0;spacingLeft=0;spacingRight=0;verticalAlign=middle;html=1;labelBackgroundColor=#ffffff;rounded=0;exitX=0.49834983498349833;exitY=1;exitDx=0;exitDy=0;exitPerimeter=0;entryX=0.49869451697127937;entryY=0;entryDx=0;entryDy=0;entryPerimeter=0;" edge="1" parent="1" source="gA9360L1mvfKF3IkTRkT-4" target="gA9360L1mvfKF3IkTRkT-7">
            <mxGeometry relative="1" as="geometry">
              <mxPoint y="263" as="offset" />
              <Array as="points">
                <mxPoint x="4547" y="2176.67" />
                <mxPoint x="4547" y="2176.67" />
              </Array>
            </mxGeometry>
          </mxCell>
        </UserObject>
        <UserObject label="" tags="Background" id="gA9360L1mvfKF3IkTRkT-100">
          <mxCell style="vsdxID=99;edgeStyle=none;startArrow=none;endArrow=block;startSize=5;endSize=5;strokeWidth=2;spacingTop=0;spacingBottom=0;spacingLeft=0;spacingRight=0;verticalAlign=middle;html=1;labelBackgroundColor=#ffffff;rounded=0;exitX=0.49834983498349833;exitY=1;exitDx=0;exitDy=0;exitPerimeter=0;entryX=0.49834983498349833;entryY=0;entryDx=0;entryDy=0;entryPerimeter=0;" edge="1" parent="1" source="gA9360L1mvfKF3IkTRkT-3" target="gA9360L1mvfKF3IkTRkT-4">
            <mxGeometry relative="1" as="geometry">
              <mxPoint y="130" as="offset" />
              <Array as="points">
                <mxPoint x="4547" y="1906.5" />
                <mxPoint x="4547" y="1906.5" />
              </Array>
            </mxGeometry>
          </mxCell>
        </UserObject>
        <UserObject label="&lt;div style=&quot;font-size: 1px&quot;&gt;&lt;p style=&quot;text-align:center;margin-left:0;margin-right:0;margin-top:0px;margin-bottom:0px;text-indent:0;vertical-align:middle;direction:ltr;&quot;&gt;&lt;font style=&quot;font-size:12px;font-family:0;color:#000000;direction:ltr;letter-spacing:0px;line-height:120%;opacity:1&quot;&gt;否&lt;/font&gt;&lt;/p&gt;&lt;/div&gt;" tags="Background" id="gA9360L1mvfKF3IkTRkT-101">
          <mxCell style="vsdxID=100;edgeStyle=none;startArrow=none;endArrow=block;startSize=5;endSize=5;strokeWidth=2;spacingTop=0;spacingBottom=0;spacingLeft=0;spacingRight=0;verticalAlign=middle;html=1;labelBackgroundColor=#ffffff;rounded=0;align=center;exitX=1;exitY=0.5;exitDx=0;exitDy=0;exitPerimeter=0;entryX=0;entryY=0.5;entryDx=0;entryDy=0;entryPerimeter=0;" edge="1" parent="1" source="gA9360L1mvfKF3IkTRkT-67" target="gA9360L1mvfKF3IkTRkT-66">
            <mxGeometry relative="1" as="geometry">
              <mxPoint x="-1" y="-1" as="offset" />
              <Array as="points">
                <mxPoint x="8533.5" y="6000" />
                <mxPoint x="8533.5" y="6000" />
              </Array>
            </mxGeometry>
          </mxCell>
        </UserObject>
        <UserObject label="" tags="Background" id="gA9360L1mvfKF3IkTRkT-102">
          <mxCell style="vsdxID=101;edgeStyle=none;startArrow=none;endArrow=block;startSize=5;endSize=5;strokeWidth=2;spacingTop=0;spacingBottom=0;spacingLeft=0;spacingRight=0;verticalAlign=middle;html=1;labelBackgroundColor=#ffffff;rounded=0;exitX=0.5;exitY=0;exitDx=0;exitDy=0;exitPerimeter=0;entryX=0.4972375690607735;entryY=1;entryDx=0;entryDy=0;entryPerimeter=0;" edge="1" parent="1" source="gA9360L1mvfKF3IkTRkT-16" target="gA9360L1mvfKF3IkTRkT-21">
            <mxGeometry relative="1" as="geometry">
              <Array as="points" />
            </mxGeometry>
          </mxCell>
        </UserObject>
        <UserObject label="" tags="Background" id="gA9360L1mvfKF3IkTRkT-103">
          <mxCell style="vsdxID=102;edgeStyle=none;startArrow=none;endArrow=block;startSize=5;endSize=5;strokeWidth=2;spacingTop=0;spacingBottom=0;spacingLeft=0;spacingRight=0;verticalAlign=middle;html=1;labelBackgroundColor=#ffffff;rounded=0;exitX=1;exitY=0.4925373134328358;exitDx=0;exitDy=0;exitPerimeter=0;entryX=0;entryY=0.5;entryDx=0;entryDy=0;entryPerimeter=0;" edge="1" parent="1" source="gA9360L1mvfKF3IkTRkT-69" target="gA9360L1mvfKF3IkTRkT-71">
            <mxGeometry relative="1" as="geometry">
              <mxPoint x="-125" y="102" as="offset" />
              <Array as="points">
                <mxPoint x="8142.67" y="6420" />
                <mxPoint x="8142.67" y="6420" />
              </Array>
            </mxGeometry>
          </mxCell>
        </UserObject>
        <UserObject label="" tags="Background" id="gA9360L1mvfKF3IkTRkT-104">
          <mxCell style="vsdxID=103;edgeStyle=none;startArrow=none;endArrow=block;startSize=5;endSize=5;strokeWidth=2;spacingTop=0;spacingBottom=0;spacingLeft=0;spacingRight=0;verticalAlign=middle;html=1;labelBackgroundColor=#ffffff;rounded=0;exitX=0.5;exitY=1;exitDx=0;exitDy=0;exitPerimeter=0;entryX=0.5024630541871922;entryY=1.0068493150684932;entryDx=0;entryDy=0;entryPerimeter=0;" edge="1" parent="1" source="gA9360L1mvfKF3IkTRkT-66" target="gA9360L1mvfKF3IkTRkT-67">
            <mxGeometry relative="1" as="geometry">
              <mxPoint x="133" y="20" as="offset" />
              <Array as="points">
                <mxPoint x="8685" y="6154.34" />
                <mxPoint x="8378.5" y="6154.34" />
              </Array>
            </mxGeometry>
          </mxCell>
        </UserObject>
        <UserObject label="" tags="Background" id="gA9360L1mvfKF3IkTRkT-105">
          <mxCell style="vsdxID=104;edgeStyle=none;startArrow=none;endArrow=block;startSize=5;endSize=5;strokeWidth=2;spacingTop=0;spacingBottom=0;spacingLeft=0;spacingRight=0;verticalAlign=middle;html=1;labelBackgroundColor=#ffffff;rounded=0;exitX=1;exitY=0.5;exitDx=0;exitDy=0;exitPerimeter=0;entryX=0;entryY=0.5;entryDx=0;entryDy=0;entryPerimeter=0;" edge="1" parent="1" source="gA9360L1mvfKF3IkTRkT-72" target="gA9360L1mvfKF3IkTRkT-73">
            <mxGeometry relative="1" as="geometry">
              <mxPoint x="-51" y="102" as="offset" />
              <Array as="points">
                <mxPoint x="7733.5" y="6995" />
                <mxPoint x="7733.5" y="6995" />
              </Array>
            </mxGeometry>
          </mxCell>
        </UserObject>
        <UserObject label="" tags="Background" id="gA9360L1mvfKF3IkTRkT-106">
          <mxCell style="vsdxID=105;edgeStyle=none;startArrow=none;endFill=0;endArrow=oval;startSize=5;endSize=5;strokeWidth=2;spacingTop=0;spacingBottom=0;spacingLeft=0;spacingRight=0;verticalAlign=middle;html=1;labelBackgroundColor=#ffffff;rounded=0;exitX=1;exitY=0.38461538461538464;exitDx=0;exitDy=0;exitPerimeter=0;entryX=0.008928571428571428;entryY=0.992;entryDx=0;entryDy=0;entryPerimeter=0;" edge="1" parent="1" source="gA9360L1mvfKF3IkTRkT-8" target="gA9360L1mvfKF3IkTRkT-10">
            <mxGeometry relative="1" as="geometry">
              <Array as="points" />
            </mxGeometry>
          </mxCell>
        </UserObject>
        <UserObject label="" tags="Background" id="gA9360L1mvfKF3IkTRkT-107">
          <mxCell style="vsdxID=106;edgeStyle=none;startArrow=none;endArrow=block;startSize=5;endSize=5;strokeWidth=2;spacingTop=0;spacingBottom=0;spacingLeft=0;spacingRight=0;verticalAlign=middle;html=1;labelBackgroundColor=#ffffff;rounded=0;exitX=0.5;exitY=0;exitDx=0;exitDy=0;exitPerimeter=0;entryX=1;entryY=0.5;entryDx=0;entryDy=0;entryPerimeter=0;" edge="1" parent="1" source="gA9360L1mvfKF3IkTRkT-63" target="gA9360L1mvfKF3IkTRkT-41">
            <mxGeometry relative="1" as="geometry">
              <mxPoint x="355" y="101" as="offset" />
              <Array as="points">
                <mxPoint x="8225" y="5537.17" />
              </Array>
            </mxGeometry>
          </mxCell>
        </UserObject>
        <UserObject label="" tags="Background" id="gA9360L1mvfKF3IkTRkT-108">
          <mxCell style="vsdxID=107;edgeStyle=none;startArrow=none;endArrow=block;startSize=5;endSize=5;strokeWidth=2;spacingTop=0;spacingBottom=0;spacingLeft=0;spacingRight=0;verticalAlign=middle;html=1;labelBackgroundColor=#ffffff;rounded=0;exitX=1;exitY=0.5033557046979866;exitDx=0;exitDy=0;exitPerimeter=0;entryX=0;entryY=0.5;entryDx=0;entryDy=0;entryPerimeter=0;" edge="1" parent="1" source="gA9360L1mvfKF3IkTRkT-16" target="gA9360L1mvfKF3IkTRkT-17">
            <mxGeometry relative="1" as="geometry">
              <Array as="points" />
            </mxGeometry>
          </mxCell>
        </UserObject>
        <UserObject label="&lt;div style=&quot;font-size: 1px&quot;&gt;&lt;p style=&quot;text-align:center;margin-left:0;margin-right:0;margin-top:0px;margin-bottom:0px;text-indent:0;vertical-align:middle;direction:ltr;&quot;&gt;&lt;font style=&quot;font-size:12px;font-family:0;color:#000000;direction:ltr;letter-spacing:0px;line-height:120%;opacity:1&quot;&gt;线程&lt;/font&gt;&lt;/p&gt;&lt;/div&gt;" tags="Background" id="gA9360L1mvfKF3IkTRkT-109">
          <mxCell style="vsdxID=108;edgeStyle=none;startArrow=none;endArrow=block;startSize=5;endSize=5;strokeWidth=2;spacingTop=0;spacingBottom=0;spacingLeft=0;spacingRight=0;verticalAlign=middle;html=1;labelBackgroundColor=#ffffff;rounded=0;align=center;exitX=1;exitY=0.49504950495049505;exitDx=0;exitDy=0;exitPerimeter=0;entryX=0;entryY=0.503448275862069;entryDx=0;entryDy=0;entryPerimeter=0;" edge="1" parent="1" source="gA9360L1mvfKF3IkTRkT-33" target="gA9360L1mvfKF3IkTRkT-31">
            <mxGeometry relative="1" as="geometry">
              <mxPoint as="offset" />
              <Array as="points">
                <mxPoint x="8547.67" y="2478" />
                <mxPoint x="8547.67" y="2370.29" />
              </Array>
            </mxGeometry>
          </mxCell>
        </UserObject>
        <UserObject label="" tags="Background" id="gA9360L1mvfKF3IkTRkT-110">
          <mxCell style="vsdxID=109;edgeStyle=none;startArrow=none;endArrow=block;startSize=5;endSize=5;strokeWidth=2;spacingTop=0;spacingBottom=0;spacingLeft=0;spacingRight=0;verticalAlign=middle;html=1;labelBackgroundColor=#ffffff;rounded=0;exitX=0.5;exitY=0;exitDx=0;exitDy=0;exitPerimeter=0;entryX=0.4972375690607735;entryY=1;entryDx=0;entryDy=0;entryPerimeter=0;" edge="1" parent="1" source="gA9360L1mvfKF3IkTRkT-16" target="gA9360L1mvfKF3IkTRkT-22">
            <mxGeometry relative="1" as="geometry">
              <Array as="points" />
            </mxGeometry>
          </mxCell>
        </UserObject>
        <UserObject label="" tags="Background" id="gA9360L1mvfKF3IkTRkT-111">
          <mxCell style="vsdxID=110;edgeStyle=none;startArrow=none;endArrow=block;startSize=5;endSize=5;strokeWidth=2;spacingTop=0;spacingBottom=0;spacingLeft=0;spacingRight=0;verticalAlign=middle;html=1;labelBackgroundColor=#ffffff;rounded=0;exitX=1;exitY=0.5;exitDx=0;exitDy=0;exitPerimeter=0;entryX=1;entryY=0.5;entryDx=0;entryDy=0;entryPerimeter=0;" edge="1" parent="1" source="gA9360L1mvfKF3IkTRkT-71" target="gA9360L1mvfKF3IkTRkT-41">
            <mxGeometry relative="1" as="geometry">
              <mxPoint x="-250" y="101" as="offset" />
              <Array as="points">
                <mxPoint x="8842.82" y="6420" />
                <mxPoint x="8842.82" y="5537.17" />
              </Array>
            </mxGeometry>
          </mxCell>
        </UserObject>
        <UserObject label="" tags="Background" id="gA9360L1mvfKF3IkTRkT-112">
          <mxCell style="vsdxID=111;edgeStyle=none;startArrow=none;endArrow=block;startSize=5;endSize=5;strokeWidth=2;spacingTop=0;spacingBottom=0;spacingLeft=0;spacingRight=0;verticalAlign=middle;html=1;labelBackgroundColor=#ffffff;rounded=0;exitX=0.49834983498349833;exitY=1;exitDx=0;exitDy=0;exitPerimeter=0;entryX=0.49834983498349833;entryY=0;entryDx=0;entryDy=0;entryPerimeter=0;" edge="1" parent="1" source="gA9360L1mvfKF3IkTRkT-2" target="gA9360L1mvfKF3IkTRkT-3">
            <mxGeometry relative="1" as="geometry">
              <mxPoint x="-65" y="169" as="offset" />
              <Array as="points">
                <mxPoint x="4418" y="1731" />
                <mxPoint x="4547" y="1731" />
              </Array>
            </mxGeometry>
          </mxCell>
        </UserObject>
        <UserObject label="" tags="Background" id="gA9360L1mvfKF3IkTRkT-113">
          <mxCell style="vsdxID=112;edgeStyle=none;startArrow=none;endArrow=block;startSize=5;endSize=5;strokeWidth=2;spacingTop=0;spacingBottom=0;spacingLeft=0;spacingRight=0;verticalAlign=middle;html=1;labelBackgroundColor=#ffffff;rounded=0;exitX=0.5;exitY=0;exitDx=0;exitDy=0;exitPerimeter=0;entryX=0.5;entryY=1;entryDx=0;entryDy=0;entryPerimeter=0;" edge="1" parent="1" source="gA9360L1mvfKF3IkTRkT-23" target="gA9360L1mvfKF3IkTRkT-24">
            <mxGeometry relative="1" as="geometry">
              <Array as="points" />
            </mxGeometry>
          </mxCell>
        </UserObject>
        <UserObject label="" tags="Background" id="gA9360L1mvfKF3IkTRkT-114">
          <mxCell style="vsdxID=113;edgeStyle=none;startArrow=none;endFill=0;endArrow=oval;startSize=5;endSize=5;strokeWidth=2;spacingTop=0;spacingBottom=0;spacingLeft=0;spacingRight=0;verticalAlign=middle;html=1;labelBackgroundColor=#ffffff;rounded=0;exitX=1;exitY=0.5;exitDx=0;exitDy=0;exitPerimeter=0;entryX=0.012135922330097087;entryY=0.9881656804733728;entryDx=0;entryDy=0;entryPerimeter=0;" edge="1" parent="1" source="gA9360L1mvfKF3IkTRkT-9" target="gA9360L1mvfKF3IkTRkT-11">
            <mxGeometry relative="1" as="geometry">
              <Array as="points" />
            </mxGeometry>
          </mxCell>
        </UserObject>
        <UserObject label="" tags="Background" id="gA9360L1mvfKF3IkTRkT-115">
          <mxCell style="vsdxID=114;edgeStyle=none;startArrow=none;endArrow=block;startSize=5;endSize=5;strokeWidth=2;spacingTop=0;spacingBottom=0;spacingLeft=0;spacingRight=0;verticalAlign=middle;html=1;labelBackgroundColor=#ffffff;rounded=0;exitX=0.5;exitY=1;exitDx=0;exitDy=0;exitPerimeter=0;entryX=0;entryY=0.5;entryDx=0;entryDy=0;entryPerimeter=0;" edge="1" parent="1" source="gA9360L1mvfKF3IkTRkT-70" target="gA9360L1mvfKF3IkTRkT-71">
            <mxGeometry relative="1" as="geometry">
              <mxPoint x="131" y="-110" as="offset" />
              <Array as="points">
                <mxPoint x="8369" y="6708.96" />
                <mxPoint x="8237.05" y="6708.96" />
                <mxPoint x="8237.05" y="6420" />
              </Array>
            </mxGeometry>
          </mxCell>
        </UserObject>
        <UserObject label="" tags="Background" id="gA9360L1mvfKF3IkTRkT-116">
          <mxCell style="vsdxID=115;edgeStyle=none;startArrow=none;endArrow=block;startSize=5;endSize=5;strokeWidth=2;spacingTop=0;spacingBottom=0;spacingLeft=0;spacingRight=0;verticalAlign=middle;html=1;labelBackgroundColor=#ffffff;rounded=0;exitX=1;exitY=0.5072463768115942;exitDx=0;exitDy=0;exitPerimeter=0;entryX=0;entryY=0.5033557046979866;entryDx=0;entryDy=0;entryPerimeter=0;" edge="1" parent="1" source="gA9360L1mvfKF3IkTRkT-15" target="gA9360L1mvfKF3IkTRkT-16">
            <mxGeometry relative="1" as="geometry">
              <Array as="points" />
            </mxGeometry>
          </mxCell>
        </UserObject>
        <UserObject label="" tags="Background" id="gA9360L1mvfKF3IkTRkT-117">
          <mxCell style="vsdxID=116;edgeStyle=none;startArrow=none;endArrow=block;startSize=5;endSize=5;strokeWidth=2;spacingTop=0;spacingBottom=0;spacingLeft=0;spacingRight=0;verticalAlign=middle;html=1;labelBackgroundColor=#ffffff;rounded=0;exitX=0.49624060150375937;exitY=1;exitDx=0;exitDy=0;exitPerimeter=0;entryX=0.49640287769784175;entryY=0;entryDx=0;entryDy=0;entryPerimeter=0;" edge="1" parent="1" source="gA9360L1mvfKF3IkTRkT-57" target="gA9360L1mvfKF3IkTRkT-58">
            <mxGeometry relative="1" as="geometry">
              <mxPoint y="179" as="offset" />
              <Array as="points">
                <mxPoint x="7280" y="5871.67" />
                <mxPoint x="7280" y="5871.67" />
              </Array>
            </mxGeometry>
          </mxCell>
        </UserObject>
        <UserObject label="&lt;div style=&quot;font-size: 1px&quot;&gt;&lt;p style=&quot;text-align:center;margin-left:0;margin-right:0;margin-top:0px;margin-bottom:0px;text-indent:0;vertical-align:middle;direction:ltr;&quot;&gt;&lt;font style=&quot;font-size:12px;font-family:0;color:#000000;direction:ltr;letter-spacing:0px;line-height:120%;opacity:1&quot;&gt;线程&lt;/font&gt;&lt;/p&gt;&lt;/div&gt;" tags="Background" id="gA9360L1mvfKF3IkTRkT-118">
          <mxCell style="vsdxID=117;edgeStyle=none;startArrow=none;endArrow=block;startSize=5;endSize=5;strokeWidth=2;spacingTop=0;spacingBottom=0;spacingLeft=0;spacingRight=0;verticalAlign=middle;html=1;labelBackgroundColor=#ffffff;rounded=0;align=center;exitX=1;exitY=0.5;exitDx=0;exitDy=0;exitPerimeter=0;entryX=0;entryY=0.503448275862069;entryDx=0;entryDy=0;entryPerimeter=0;" edge="1" parent="1" source="gA9360L1mvfKF3IkTRkT-34" target="gA9360L1mvfKF3IkTRkT-35">
            <mxGeometry relative="1" as="geometry">
              <mxPoint as="offset" />
              <Array as="points">
                <mxPoint x="8114.5" y="4005" />
                <mxPoint x="8114.5" y="3904.92" />
              </Array>
            </mxGeometry>
          </mxCell>
        </UserObject>
        <UserObject label="" tags="Background" id="gA9360L1mvfKF3IkTRkT-119">
          <mxCell style="vsdxID=118;edgeStyle=none;startArrow=none;endArrow=block;startSize=5;endSize=5;strokeWidth=2;spacingTop=0;spacingBottom=0;spacingLeft=0;spacingRight=0;verticalAlign=middle;html=1;labelBackgroundColor=#ffffff;rounded=0;exitX=1;exitY=0.504950495049505;exitDx=0;exitDy=0;exitPerimeter=0;entryX=0;entryY=0.5;entryDx=0;entryDy=0;entryPerimeter=0;" edge="1" parent="1" source="gA9360L1mvfKF3IkTRkT-60" target="gA9360L1mvfKF3IkTRkT-72">
            <mxGeometry relative="1" as="geometry">
              <mxPoint x="-104" y="102" as="offset" />
              <Array as="points">
                <mxPoint x="7443.88" y="6995" />
                <mxPoint x="7443.88" y="6995" />
              </Array>
            </mxGeometry>
          </mxCell>
        </UserObject>
        <UserObject label="" tags="Background" id="gA9360L1mvfKF3IkTRkT-120">
          <mxCell style="vsdxID=119;edgeStyle=none;startArrow=none;endArrow=block;startSize=5;endSize=5;strokeWidth=2;spacingTop=0;spacingBottom=0;spacingLeft=0;spacingRight=0;verticalAlign=middle;html=1;labelBackgroundColor=#ffffff;rounded=0;exitX=0.502127659574468;exitY=1;exitDx=0;exitDy=0;exitPerimeter=0;entryX=0.50187265917603;entryY=0;entryDx=0;entryDy=0;entryPerimeter=0;" edge="1" parent="1" source="gA9360L1mvfKF3IkTRkT-17" target="gA9360L1mvfKF3IkTRkT-18">
            <mxGeometry relative="1" as="geometry">
              <Array as="points" />
            </mxGeometry>
          </mxCell>
        </UserObject>
        <UserObject label="" tags="Background" id="gA9360L1mvfKF3IkTRkT-121">
          <mxCell style="vsdxID=120;edgeStyle=none;startArrow=none;endArrow=block;startSize=5;endSize=5;strokeWidth=2;spacingTop=0;spacingBottom=0;spacingLeft=0;spacingRight=0;verticalAlign=middle;html=1;labelBackgroundColor=#ffffff;rounded=0;exitX=1;exitY=0.4925373134328358;exitDx=0;exitDy=0;exitPerimeter=0;entryX=0;entryY=0.5;entryDx=0;entryDy=0;entryPerimeter=0;" edge="1" parent="1" source="gA9360L1mvfKF3IkTRkT-62" target="gA9360L1mvfKF3IkTRkT-63">
            <mxGeometry relative="1" as="geometry">
              <mxPoint x="-47" y="102" as="offset" />
              <Array as="points">
                <mxPoint x="8080" y="5746" />
                <mxPoint x="8080" y="5746" />
              </Array>
            </mxGeometry>
          </mxCell>
        </UserObject>
        <UserObject label="&lt;div style=&quot;font-size: 1px&quot;&gt;&lt;p style=&quot;text-align:center;margin-left:0;margin-right:0;margin-top:0px;margin-bottom:0px;text-indent:0;vertical-align:middle;direction:ltr;&quot;&gt;&lt;font style=&quot;font-size:12px;font-family:0;color:#000000;direction:ltr;letter-spacing:0px;line-height:120%;opacity:1&quot;&gt;是&lt;/font&gt;&lt;/p&gt;&lt;/div&gt;" tags="Background" id="gA9360L1mvfKF3IkTRkT-122">
          <mxCell style="vsdxID=121;edgeStyle=none;startArrow=none;endArrow=block;startSize=5;endSize=5;strokeWidth=2;spacingTop=0;spacingBottom=0;spacingLeft=0;spacingRight=0;verticalAlign=middle;html=1;labelBackgroundColor=#ffffff;rounded=0;align=center;exitX=1;exitY=0.494949494949495;exitDx=0;exitDy=0;exitPerimeter=0;entryX=0;entryY=0.5;entryDx=0;entryDy=0;entryPerimeter=0;" edge="1" parent="1" source="gA9360L1mvfKF3IkTRkT-58" target="gA9360L1mvfKF3IkTRkT-64">
            <mxGeometry relative="1" as="geometry">
              <mxPoint y="-1" as="offset" />
              <Array as="points">
                <mxPoint x="7461.35" y="6000" />
                <mxPoint x="7461.35" y="6000" />
              </Array>
            </mxGeometry>
          </mxCell>
        </UserObject>
        <UserObject label="" tags="Background" id="gA9360L1mvfKF3IkTRkT-123">
          <mxCell style="vsdxID=122;edgeStyle=none;startArrow=none;endArrow=block;startSize=5;endSize=5;strokeWidth=2;spacingTop=0;spacingBottom=0;spacingLeft=0;spacingRight=0;verticalAlign=middle;html=1;labelBackgroundColor=#ffffff;rounded=0;exitX=1;exitY=0.5;exitDx=0;exitDy=0;exitPerimeter=0;entryX=0;entryY=0.4925373134328358;entryDx=0;entryDy=0;entryPerimeter=0;" edge="1" parent="1" source="gA9360L1mvfKF3IkTRkT-68" target="gA9360L1mvfKF3IkTRkT-69">
            <mxGeometry relative="1" as="geometry">
              <mxPoint x="-59" y="102" as="offset" />
              <Array as="points">
                <mxPoint x="7781" y="6420" />
                <mxPoint x="7781" y="6420" />
              </Array>
            </mxGeometry>
          </mxCell>
        </UserObject>
        <UserObject label="&lt;div style=&quot;font-size: 1px&quot;&gt;&lt;p style=&quot;text-align:center;margin-left:0;margin-right:0;margin-top:0px;margin-bottom:0px;text-indent:0;vertical-align:middle;direction:ltr;&quot;&gt;&lt;font style=&quot;font-size:12px;font-family:0;color:#000000;direction:ltr;letter-spacing:0px;line-height:120%;opacity:1&quot;&gt;是&lt;/font&gt;&lt;/p&gt;&lt;/div&gt;" tags="Background" id="gA9360L1mvfKF3IkTRkT-124">
          <mxCell style="vsdxID=123;edgeStyle=none;startArrow=none;endArrow=block;startSize=5;endSize=5;strokeWidth=2;spacingTop=0;spacingBottom=0;spacingLeft=0;spacingRight=0;verticalAlign=middle;html=1;labelBackgroundColor=#ffffff;rounded=0;align=center;exitX=0.5;exitY=0;exitDx=0;exitDy=0;exitPerimeter=0;entryX=0.5;entryY=1;entryDx=0;entryDy=0;entryPerimeter=0;" edge="1" parent="1" source="gA9360L1mvfKF3IkTRkT-29" target="gA9360L1mvfKF3IkTRkT-27">
            <mxGeometry relative="1" as="geometry">
              <mxPoint as="offset" />
              <Array as="points">
                <mxPoint x="7847" y="2816.17" />
                <mxPoint x="7847" y="2816.17" />
              </Array>
            </mxGeometry>
          </mxCell>
        </UserObject>
        <UserObject label="" tags="Background" id="gA9360L1mvfKF3IkTRkT-125">
          <mxCell style="vsdxID=124;edgeStyle=none;startArrow=none;endArrow=block;startSize=5;endSize=5;strokeWidth=2;spacingTop=0;spacingBottom=0;spacingLeft=0;spacingRight=0;verticalAlign=middle;html=1;labelBackgroundColor=#ffffff;rounded=0;exitX=0.50187265917603;exitY=1;exitDx=0;exitDy=0;exitPerimeter=0;entryX=0.5021097046413502;entryY=0;entryDx=0;entryDy=0;entryPerimeter=0;" edge="1" parent="1" source="gA9360L1mvfKF3IkTRkT-18" target="gA9360L1mvfKF3IkTRkT-19">
            <mxGeometry relative="1" as="geometry">
              <Array as="points" />
            </mxGeometry>
          </mxCell>
        </UserObject>
        <UserObject label="&lt;div style=&quot;font-size: 1px&quot;&gt;&lt;p style=&quot;text-align:center;margin-left:0;margin-right:0;margin-top:0px;margin-bottom:0px;text-indent:0;vertical-align:middle;direction:ltr;&quot;&gt;&lt;font style=&quot;font-size:12px;font-family:0;color:#000000;direction:ltr;letter-spacing:0px;line-height:120%;opacity:1&quot;&gt;创建并启动任务&lt;/font&gt;&lt;/p&gt;&lt;/div&gt;" tags="Background" id="gA9360L1mvfKF3IkTRkT-126">
          <mxCell style="vsdxID=125;edgeStyle=none;startArrow=none;endArrow=block;startSize=5;endSize=5;strokeWidth=2;spacingTop=0;spacingBottom=0;spacingLeft=0;spacingRight=0;verticalAlign=middle;html=1;labelBackgroundColor=#ffffff;rounded=0;align=center;exitX=1;exitY=0.5;exitDx=0;exitDy=0;exitPerimeter=0;entryX=0;entryY=0.5;entryDx=0;entryDy=0;entryPerimeter=0;" edge="1" parent="1" source="gA9360L1mvfKF3IkTRkT-4" target="gA9360L1mvfKF3IkTRkT-6">
            <mxGeometry relative="1" as="geometry">
              <mxPoint y="-1" as="offset" />
              <Array as="points">
                <mxPoint x="4823" y="1975" />
                <mxPoint x="4823" y="1975" />
              </Array>
            </mxGeometry>
          </mxCell>
        </UserObject>
        <UserObject label="" tags="Background" id="gA9360L1mvfKF3IkTRkT-127">
          <mxCell style="vsdxID=126;edgeStyle=none;startArrow=none;endArrow=block;startSize=5;endSize=5;strokeWidth=2;spacingTop=0;spacingBottom=0;spacingLeft=0;spacingRight=0;verticalAlign=middle;html=1;labelBackgroundColor=#ffffff;rounded=0;exitX=1;exitY=0.5;exitDx=0;exitDy=0;exitPerimeter=0;entryX=1;entryY=0.5;entryDx=0;entryDy=0;entryPerimeter=0;" edge="1" parent="1" source="gA9360L1mvfKF3IkTRkT-74" target="gA9360L1mvfKF3IkTRkT-41">
            <mxGeometry relative="1" as="geometry">
              <mxPoint x="-397" y="-76" as="offset" />
              <Array as="points">
                <mxPoint x="8839.87" y="6995" />
                <mxPoint x="8839.87" y="5537.5" />
              </Array>
            </mxGeometry>
          </mxCell>
        </UserObject>
        <UserObject label="&lt;div style=&quot;font-size: 1px&quot;&gt;&lt;p style=&quot;text-align:center;margin-left:0;margin-right:0;margin-top:0px;margin-bottom:0px;text-indent:0;vertical-align:middle;direction:ltr;&quot;&gt;&lt;font style=&quot;font-size:12px;font-family:0;color:#000000;direction:ltr;letter-spacing:0px;line-height:120%;opacity:1&quot;&gt;线程&lt;/font&gt;&lt;/p&gt;&lt;/div&gt;" tags="Background" id="gA9360L1mvfKF3IkTRkT-128">
          <mxCell style="vsdxID=127;edgeStyle=none;startArrow=none;endArrow=block;startSize=5;endSize=5;strokeWidth=2;spacingTop=0;spacingBottom=0;spacingLeft=0;spacingRight=0;verticalAlign=middle;html=1;labelBackgroundColor=#ffffff;rounded=0;align=center;exitX=1;exitY=0.6633663366336634;exitDx=0;exitDy=0;exitPerimeter=0;entryX=0;entryY=0.5;entryDx=0;entryDy=0;entryPerimeter=0;" edge="1" parent="1" source="gA9360L1mvfKF3IkTRkT-33" target="gA9360L1mvfKF3IkTRkT-32">
            <mxGeometry relative="1" as="geometry">
              <mxPoint as="offset" />
              <Array as="points">
                <mxPoint x="8547.67" y="2495" />
                <mxPoint x="8547.67" y="2572.51" />
              </Array>
            </mxGeometry>
          </mxCell>
        </UserObject>
        <UserObject label="" tags="Background" id="gA9360L1mvfKF3IkTRkT-129">
          <mxCell style="vsdxID=128;edgeStyle=none;startArrow=none;endArrow=block;startSize=5;endSize=5;strokeWidth=2;spacingTop=0;spacingBottom=0;spacingLeft=0;spacingRight=0;verticalAlign=middle;html=1;labelBackgroundColor=#ffffff;rounded=0;exitX=1;exitY=0.4954128440366973;exitDx=0;exitDy=0;exitPerimeter=0;entryX=0;entryY=0.5;entryDx=0;entryDy=0;entryPerimeter=0;" edge="1" parent="1" source="gA9360L1mvfKF3IkTRkT-29" target="gA9360L1mvfKF3IkTRkT-30">
            <mxGeometry relative="1" as="geometry">
              <mxPoint x="-81" y="102" as="offset" />
              <Array as="points">
                <mxPoint x="7996" y="2907" />
                <mxPoint x="7996" y="2907" />
              </Array>
            </mxGeometry>
          </mxCell>
        </UserObject>
        <UserObject label="&lt;div style=&quot;font-size: 1px&quot;&gt;&lt;p style=&quot;text-align:center;margin-left:0;margin-right:0;margin-top:0px;margin-bottom:0px;text-indent:0;vertical-align:middle;direction:ltr;&quot;&gt;&lt;font style=&quot;font-size:12px;font-family:0;color:#000000;direction:ltr;letter-spacing:0px;line-height:120%;opacity:1&quot;&gt;是&lt;/font&gt;&lt;/p&gt;&lt;/div&gt;" tags="Background" id="gA9360L1mvfKF3IkTRkT-130">
          <mxCell style="vsdxID=129;edgeStyle=none;startArrow=none;endArrow=block;startSize=5;endSize=5;strokeWidth=2;spacingTop=0;spacingBottom=0;spacingLeft=0;spacingRight=0;verticalAlign=middle;html=1;labelBackgroundColor=#ffffff;rounded=0;align=center;exitX=0.5;exitY=0;exitDx=0;exitDy=0;exitPerimeter=0;entryX=0.49700598802395207;entryY=1;entryDx=0;entryDy=0;entryPerimeter=0;" edge="1" parent="1" source="gA9360L1mvfKF3IkTRkT-27" target="gA9360L1mvfKF3IkTRkT-28">
            <mxGeometry relative="1" as="geometry">
              <mxPoint as="offset" />
              <Array as="points">
                <mxPoint x="7847" y="2590.5" />
                <mxPoint x="7847" y="2590.5" />
              </Array>
            </mxGeometry>
          </mxCell>
        </UserObject>
        <UserObject label="" tags="Background" id="gA9360L1mvfKF3IkTRkT-131">
          <mxCell style="vsdxID=130;edgeStyle=none;startArrow=none;endArrow=block;startSize=5;endSize=5;strokeWidth=2;spacingTop=0;spacingBottom=0;spacingLeft=0;spacingRight=0;verticalAlign=middle;html=1;labelBackgroundColor=#ffffff;rounded=0;exitX=0.5;exitY=0;exitDx=0;exitDy=0;exitPerimeter=0;entryX=0.5;entryY=1;entryDx=0;entryDy=0;entryPerimeter=0;" edge="1" parent="1" source="gA9360L1mvfKF3IkTRkT-25" target="gA9360L1mvfKF3IkTRkT-26">
            <mxGeometry relative="1" as="geometry">
              <Array as="points" />
            </mxGeometry>
          </mxCell>
        </UserObject>
        <mxCell id="gA9360L1mvfKF3IkTRkT-132" vertex="1" parent="1">
          <mxGeometry x="7353" y="5539" as="geometry" />
        </mxCell>
        <UserObject label="&lt;div style=&quot;font-size: 1px&quot;&gt;&lt;p style=&quot;text-align:center;margin-left:0;margin-right:0;margin-top:0px;margin-bottom:0px;text-indent:0;vertical-align:middle;direction:ltr;&quot;&gt;&lt;font style=&quot;font-size:12px;font-family:0;color:#000000;direction:ltr;letter-spacing:0px;line-height:120%;opacity:1&quot;&gt;是&lt;/font&gt;&lt;/p&gt;&lt;/div&gt;" tags="Background" id="gA9360L1mvfKF3IkTRkT-133">
          <mxCell style="vsdxID=131;edgeStyle=none;startArrow=none;endArrow=block;startSize=5;endSize=5;strokeWidth=2;spacingTop=0;spacingBottom=0;spacingLeft=0;spacingRight=0;verticalAlign=middle;html=1;labelBackgroundColor=#ffffff;rounded=0;align=center;exitX=0.5024630541871922;exitY=0;exitDx=0;exitDy=0;exitPerimeter=0;" edge="1" parent="1" source="gA9360L1mvfKF3IkTRkT-67" target="gA9360L1mvfKF3IkTRkT-132">
            <mxGeometry relative="1" as="geometry">
              <mxPoint as="offset" />
              <Array as="points">
                <mxPoint x="8379" y="5538.75" />
              </Array>
            </mxGeometry>
          </mxCell>
        </UserObject>
        <UserObject label="" tags="Background" id="gA9360L1mvfKF3IkTRkT-134">
          <mxCell style="vsdxID=132;edgeStyle=none;startArrow=none;endArrow=block;startSize=5;endSize=5;strokeWidth=2;spacingTop=0;spacingBottom=0;spacingLeft=0;spacingRight=0;verticalAlign=middle;html=1;labelBackgroundColor=#ffffff;rounded=0;exitX=0.5021097046413502;exitY=1;exitDx=0;exitDy=0;exitPerimeter=0;entryX=0.4978902953586498;entryY=0;entryDx=0;entryDy=0;entryPerimeter=0;" edge="1" parent="1" source="gA9360L1mvfKF3IkTRkT-19" target="gA9360L1mvfKF3IkTRkT-37">
            <mxGeometry relative="1" as="geometry">
              <mxPoint x="1" y="542" as="offset" />
              <Array as="points">
                <mxPoint x="7282" y="4476.17" />
                <mxPoint x="7280.75" y="4476.17" />
              </Array>
            </mxGeometry>
          </mxCell>
        </UserObject>
        <UserObject label="" tags="Background" id="gA9360L1mvfKF3IkTRkT-135">
          <mxCell style="vsdxID=133;edgeStyle=none;startArrow=none;endArrow=block;startSize=5;endSize=5;strokeWidth=2;spacingTop=0;spacingBottom=0;spacingLeft=0;spacingRight=0;verticalAlign=middle;html=1;labelBackgroundColor=#ffffff;rounded=0;exitX=1;exitY=0.4945054945054945;exitDx=0;exitDy=0;exitPerimeter=0;entryX=0;entryY=0.5;entryDx=0;entryDy=0;entryPerimeter=0;" edge="1" parent="1" source="gA9360L1mvfKF3IkTRkT-59" target="gA9360L1mvfKF3IkTRkT-68">
            <mxGeometry relative="1" as="geometry">
              <mxPoint x="-108" y="102" as="offset" />
              <Array as="points">
                <mxPoint x="7454.85" y="6420" />
                <mxPoint x="7454.85" y="6420" />
              </Array>
            </mxGeometry>
          </mxCell>
        </UserObject>
        <UserObject label="" tags="Background" id="gA9360L1mvfKF3IkTRkT-136">
          <mxCell style="vsdxID=134;edgeStyle=none;startArrow=none;endArrow=block;startSize=5;endSize=5;strokeWidth=2;spacingTop=0;spacingBottom=0;spacingLeft=0;spacingRight=0;verticalAlign=middle;html=1;labelBackgroundColor=#ffffff;rounded=0;exitX=0.49624060150375937;exitY=1;exitDx=0;exitDy=0;exitPerimeter=0;entryX=0.5;entryY=0;entryDx=0;entryDy=0;entryPerimeter=0;" edge="1" parent="1" source="gA9360L1mvfKF3IkTRkT-59" target="gA9360L1mvfKF3IkTRkT-60">
            <mxGeometry relative="1" as="geometry">
              <mxPoint y="340" as="offset" />
              <Array as="points">
                <mxPoint x="7280" y="6705.17" />
                <mxPoint x="7280" y="6705.17" />
              </Array>
            </mxGeometry>
          </mxCell>
        </UserObject>
        <UserObject label="&lt;div style=&quot;font-size: 1px&quot;&gt;&lt;p style=&quot;text-align:center;margin-left:0;margin-right:0;margin-top:0px;margin-bottom:0px;text-indent:0;vertical-align:middle;direction:ltr;&quot;&gt;&lt;font style=&quot;font-size:12px;font-family:0;color:#000000;direction:ltr;letter-spacing:0px;line-height:120%;opacity:1&quot;&gt;线程&lt;/font&gt;&lt;/p&gt;&lt;/div&gt;" tags="Background" id="gA9360L1mvfKF3IkTRkT-137">
          <mxCell style="vsdxID=135;edgeStyle=none;startArrow=none;endArrow=block;startSize=5;endSize=5;strokeWidth=2;spacingTop=0;spacingBottom=0;spacingLeft=0;spacingRight=0;verticalAlign=middle;html=1;labelBackgroundColor=#ffffff;rounded=0;align=center;exitX=0.5;exitY=0;exitDx=0;exitDy=0;exitPerimeter=0;entryX=0.5;entryY=1;entryDx=0;entryDy=0;entryPerimeter=0;" edge="1" parent="1" source="gA9360L1mvfKF3IkTRkT-20" target="gA9360L1mvfKF3IkTRkT-23">
            <mxGeometry relative="1" as="geometry">
              <Array as="points" />
            </mxGeometry>
          </mxCell>
        </UserObject>
        <UserObject label="&lt;div style=&quot;font-size: 1px&quot;&gt;&lt;p style=&quot;text-align:center;margin-left:0;margin-right:0;margin-top:0px;margin-bottom:0px;text-indent:0;vertical-align:middle;direction:ltr;&quot;&gt;&lt;font style=&quot;font-size:12px;font-family:0;color:#000000;direction:ltr;letter-spacing:0px;line-height:120%;opacity:1&quot;&gt;否&lt;/font&gt;&lt;/p&gt;&lt;/div&gt;" tags="Background" id="gA9360L1mvfKF3IkTRkT-138">
          <mxCell style="vsdxID=136;edgeStyle=none;startArrow=none;endArrow=block;startSize=5;endSize=5;strokeWidth=2;spacingTop=0;spacingBottom=0;spacingLeft=0;spacingRight=0;verticalAlign=middle;html=1;labelBackgroundColor=#ffffff;rounded=0;align=center;exitX=0.5;exitY=0;exitDx=0;exitDy=0;exitPerimeter=0;entryX=0.5;entryY=1;entryDx=0;entryDy=0;entryPerimeter=0;" edge="1" parent="1" source="gA9360L1mvfKF3IkTRkT-24" target="gA9360L1mvfKF3IkTRkT-25">
            <mxGeometry relative="1" as="geometry">
              <Array as="points" />
            </mxGeometry>
          </mxCell>
        </UserObject>
        <UserObject label="&lt;div style=&quot;font-size: 1px&quot;&gt;&lt;p style=&quot;text-align:center;margin-left:0;margin-right:0;margin-top:0px;margin-bottom:0px;text-indent:0;vertical-align:middle;direction:ltr;&quot;&gt;&lt;font style=&quot;font-size:12px;font-family:0;color:#000000;direction:ltr;letter-spacing:0px;line-height:120%;opacity:1&quot;&gt;否&lt;/font&gt;&lt;/p&gt;&lt;/div&gt;" tags="Background" id="gA9360L1mvfKF3IkTRkT-139">
          <mxCell style="vsdxID=137;edgeStyle=none;startArrow=none;endArrow=block;startSize=5;endSize=5;strokeWidth=2;spacingTop=0;spacingBottom=0;spacingLeft=0;spacingRight=0;verticalAlign=middle;html=1;labelBackgroundColor=#ffffff;rounded=0;align=center;exitX=0.5;exitY=1;exitDx=0;exitDy=0;exitPerimeter=0;entryX=0.49624060150375937;entryY=0;entryDx=0;entryDy=0;entryPerimeter=0;" edge="1" parent="1" source="gA9360L1mvfKF3IkTRkT-41" target="gA9360L1mvfKF3IkTRkT-57">
            <mxGeometry relative="1" as="geometry">
              <mxPoint as="offset" />
              <Array as="points">
                <mxPoint x="7280" y="5639" />
                <mxPoint x="7280" y="5639" />
              </Array>
            </mxGeometry>
          </mxCell>
        </UserObject>
        <UserObject label="" tags="Background" id="gA9360L1mvfKF3IkTRkT-140">
          <mxCell style="vsdxID=138;edgeStyle=none;startArrow=none;endArrow=block;startSize=5;endSize=5;strokeWidth=2;spacingTop=0;spacingBottom=0;spacingLeft=0;spacingRight=0;verticalAlign=middle;html=1;labelBackgroundColor=#ffffff;rounded=0;exitX=0.5;exitY=1;exitDx=0;exitDy=0;exitPerimeter=0;entryX=0.5;entryY=0;entryDx=0;entryDy=0;entryPerimeter=0;" edge="1" parent="1" source="gA9360L1mvfKF3IkTRkT-20" target="gA9360L1mvfKF3IkTRkT-34">
            <mxGeometry relative="1" as="geometry">
              <mxPoint y="178" as="offset" />
              <Array as="points">
                <mxPoint x="7847" y="3893" />
                <mxPoint x="7847" y="3893" />
              </Array>
            </mxGeometry>
          </mxCell>
        </UserObject>
        <UserObject label="" tags="Background" id="gA9360L1mvfKF3IkTRkT-141">
          <mxCell style="vsdxID=139;edgeStyle=none;startArrow=none;endArrow=block;startSize=5;endSize=5;strokeWidth=2;spacingTop=0;spacingBottom=0;spacingLeft=0;spacingRight=0;verticalAlign=middle;html=1;labelBackgroundColor=#ffffff;rounded=0;exitX=0.5;exitY=1;exitDx=0;exitDy=0;exitPerimeter=0;entryX=0.5;entryY=0;entryDx=0;entryDy=0;entryPerimeter=0;" edge="1" parent="1" source="gA9360L1mvfKF3IkTRkT-40" target="gA9360L1mvfKF3IkTRkT-41">
            <mxGeometry relative="1" as="geometry">
              <mxPoint y="156" as="offset" />
              <Array as="points">
                <mxPoint x="7280" y="5442.17" />
                <mxPoint x="7280" y="5442.17" />
              </Array>
            </mxGeometry>
          </mxCell>
        </UserObject>
        <UserObject label="" tags="Background" id="gA9360L1mvfKF3IkTRkT-142">
          <mxCell style="vsdxID=140;edgeStyle=none;startArrow=none;endArrow=block;startSize=5;endSize=5;strokeWidth=2;spacingTop=0;spacingBottom=0;spacingLeft=0;spacingRight=0;verticalAlign=middle;html=1;labelBackgroundColor=#ffffff;rounded=0;exitX=1;exitY=0.5;exitDx=0;exitDy=0;exitPerimeter=0;entryX=0;entryY=0.5054945054945055;entryDx=0;entryDy=0;entryPerimeter=0;" edge="1" parent="1" source="gA9360L1mvfKF3IkTRkT-7" target="gA9360L1mvfKF3IkTRkT-8">
            <mxGeometry relative="1" as="geometry">
              <mxPoint x="-134" y="102" as="offset" />
              <Array as="points">
                <mxPoint x="4872.5" y="2383" />
                <mxPoint x="4872.5" y="2383" />
              </Array>
            </mxGeometry>
          </mxCell>
        </UserObject>
      </root>
    </mxGraphModel>
  </diagram>
</mxfile>
